<svg xmlns="http://www.w3.org/2000/svg" width="900" height="700" viewBox="0 0 35 34.9089653438">
<title>Hat monotile level 2</title>
<polygon points="10,20.4855715851 10,19.6195461814 9.5,19.6195461814 9,20.4855715851 9.25,20.918584287 8.5,21.3515969889 8.5,22.2176223927 9,22.2176223927 9.25,21.7846096908 10,22.2176223927 10.75,21.7846096908 10.5,21.3515969889 10.75,20.918584287" fill="#f7d488" stroke="#222222" stroke-width="0.02" />
<polygon points="13,20.4855715851 13,19.6195461814 12.5,19.6195461814 12,20.4855715851 12.25,20.918584287 11.5,21.3515969889 11.5,22.2176223927 12,22.2176223927 12.25,21.7846096908 13,22.2176223927 13.75,21.7846096908 13.5,21.3515969889 13.75,20.918584287" fill="#f7d488" stroke="#222222" stroke-width="0.02" />
<polygon points="11.5,19.6195461814 12.25,20.0525588833 12.5,19.6195461814 12,18.7535207776 11.5,18.7535207776 11.5,17.8874953738 10.75,17.4544826719 10.5,17.8874953738 10.75,18.3205080757 10,18.7535207776 10,19.6195461814 10.5,19.6195461814 10.75,20.0525588833" fill="#f7d488" stroke="#222222" stroke-width="0.02" />
<polygon points="11.5,21.3515969889 11.5,22.2176223927 11,22.2176223927 10.5,21.3515969889 10.75,20.918584287 10,20.4855715851 10,19.6195461814 10.5,19.6195461814 10.75,20.0525588833 11.5,19.6195461814 12.25,20.0525588833 12,20.4855715851 12.25,20.918584287" fill="#f7d488" stroke="#222222" stroke-width="0.02" />
<polygon points="14.5,21.3515969889 14.5,20.4855715851 14,20.4855715851 13.5,21.3515969889 13.75,21.7846096908 13,22.2176223927 13,23.0836477965 13.5,23.0836477965 13.75,22.6506350946 14.5,23.0836477965 15.25,22.6506350946 15,22.2176223927 15.25,21.7846096908" fill="#f7d488" stroke="#222222" stroke-width="0.02" />
<polygon points="17.5,21.3515969889 17.5,20.4855715851 17,20.4855715851 16.5,21.3515969889 16.75,21.7846096908 16,22.2176223927 16,23.0836477965 16.5,23.0836477965 16.75,22.6506350946 17.5,23.0836477965 18.25,22.6506350946 18,22.2176223927 18.25,21.7846096908" fill="#f7d488" stroke="#222222" stroke-width="0.02" />
<polygon points="16,20.4855715851 16.75,20.918584287 17,20.4855715851 16.5,19.6195461814 16,19.6195461814 16,18.7535207776 15.25,18.3205080757 15,18.7535207776 15.25,19.1865334795 14.5,19.6195461814 14.5,20.4855715851 15,20.4855715851 15.25,20.918584287" fill="#f7d488" stroke="#222222" stroke-width="0.02" />
<polygon points="16,22.2176223927 16,23.0836477965 15.5,23.0836477965 15,22.2176223927 15.25,21.7846096908 14.5,21.3515969889 14.5,20.4855715851 15,20.4855715851 15.25,20.918584287 16,20.4855715851 16.75,20.918584287 16.5,21.3515969889 16.75,21.7846096908" fill="#f7d488" stroke="#222222" stroke-width="0.02" />
<polygon points="14.5,16.1554445662 15.25,16.5884572681 15.5,16.1554445662 15,15.2894191624 14.5,15.2894191624 14.5,14.4233937587 13.75,13.9903810568 13.5,14.4233937587 13.75,14.8564064606 13,15.2894191624 13,16.1554445662 13.5,16.1554445662 13.75,16.5884572681" fill="#f7d488" stroke="#222222" stroke-width="0.02" />
<polygon points="13,18.7535207776 13.75,19.1865334795 14,18.7535207776 13.5,17.8874953738 13,17.8874953738 13,17.02146997 12.25,16.5884572681 12,17.02146997 12.25,17.4544826719 11.5,17.8874953738 11.5,18.7535207776 12,18.7535207776 12.25,19.1865334795" fill="#f7d488" stroke="#222222" stroke-width="0.02" />
<polygon points="14.5,17.8874953738 13.75,18.3205080757 14,18.7535207776 15,18.7535207776 15.25,18.3205080757 16,18.7535207776 16.75,18.3205080757 16.5,17.8874953738 16,17.8874953738 16,17.02146997 15.25,16.5884572681 15,17.02146997 14.5,17.02146997" fill="#f7d488" stroke="#222222" stroke-width="0.02" />
<polygon points="13,17.02146997 12.25,16.5884572681 12.5,16.1554445662 13.5,16.1554445662 13.75,16.5884572681 14.5,16.1554445662 15.25,16.5884572681 15,17.02146997 14.5,17.02146997 14.5,17.8874953738 13.75,18.3205080757 13.5,17.8874953738 13,17.8874953738" fill="#f7d488" stroke="#222222" stroke-width="0.02" />
<polygon points="14.5,19.6195461814 15.25,19.1865334795 15,18.7535207776 14,18.7535207776 13.75,19.1865334795 13,18.7535207776 12.25,19.1865334795 12.5,19.6195461814 13,19.6195461814 13,20.4855715851 13.75,20.918584287 14,20.4855715851 14.5,20.4855715851" fill="#f7d488" stroke="#222222" stroke-width="0.02" />
<polygon points="11.5,16.1554445662 11.5,15.2894191624 11,15.2894191624 10.5,16.1554445662 10.75,16.5884572681 10,17.02146997 10,17.8874953738 10.5,17.8874953738 10.75,17.4544826719 11.5,17.8874953738 12.25,17.4544826719 12,17.02146997 12.25,16.5884572681" fill="#f7d488" stroke="#222222" stroke-width="0.02" />
<polygon points="13,15.2894191624 13.75,14.8564064606 13.5,14.4233937587 12.5,14.4233937587 12.25,14.8564064606 11.5,14.4233937587 10.75,14.8564064606 11,15.2894191624 11.5,15.2894191624 11.5,16.1554445662 12.25,16.5884572681 12.5,16.1554445662 13,16.1554445662" fill="#f7d488" stroke="#222222" stroke-width="0.02" />
<polygon points="8.5,19.6195461814 8.5,18.7535207776 8,18.7535207776 7.5,19.6195461814 7.75,20.0525588833 7,20.4855715851 7,21.3515969889 7.5,21.3515969889 7.75,20.918584287 8.5,21.3515969889 9.25,20.918584287 9,20.4855715851 9.25,20.0525588833" fill="#f7d488" stroke="#222222" stroke-width="0.02" />
<polygon points="10,18.7535207776 10.75,18.3205080757 10.5,17.8874953738 9.5,17.8874953738 9.25,18.3205080757 8.5,17.8874953738 7.75,18.3205080757 8,18.7535207776 8.5,18.7535207776 8.5,19.6195461814 9.25,20.0525588833 9.5,19.6195461814 10,19.6195461814" fill="#f7d488" stroke="#222222" stroke-width="0.02" />
<polygon points="11.5,23.0836477965 10.75,23.5166604984 11,23.9496732003 12,23.9496732003 12.25,23.5166604984 13,23.9496732003 13.75,23.5166604984 13.5,23.0836477965 13,23.0836477965 13,22.2176223927 12.25,21.7846096908 12,22.2176223927 11.5,22.2176223927" fill="#f7d488" stroke="#222222" stroke-width="0.02" />
<polygon points="10,22.2176223927 9.25,21.7846096908 9,22.2176223927 9.5,23.0836477965 10,23.0836477965 10,23.9496732003 10.75,24.3826859022 11,23.9496732003 10.75,23.5166604984 11.5,23.0836477965 11.5,22.2176223927 11,22.2176223927 10.75,21.7846096908" fill="#f7d488" stroke="#222222" stroke-width="0.02" />
<polygon points="16,23.9496732003 15.25,24.3826859022 15.5,24.8156986041 16.5,24.8156986041 16.75,24.3826859022 17.5,24.8156986041 18.25,24.3826859022 18,23.9496732003 17.5,23.9496732003 17.5,23.0836477965 16.75,22.6506350946 16.5,23.0836477965 16,23.0836477965" fill="#f7d488" stroke="#222222" stroke-width="0.02" />
<polygon points="14.5,23.0836477965 13.75,22.6506350946 13.5,23.0836477965 14,23.9496732003 14.5,23.9496732003 14.5,24.8156986041 15.25,25.248711306 15.5,24.8156986041 15.25,24.3826859022 16,23.9496732003 16,23.0836477965 15.5,23.0836477965 15.25,22.6506350946" fill="#f7d488" stroke="#222222" stroke-width="0.02" />
<polygon points="17.5,19.6195461814 16.75,19.1865334795 16.5,19.6195461814 17,20.4855715851 17.5,20.4855715851 17.5,21.3515969889 18.25,21.7846096908 18.5,21.3515969889 18.25,20.918584287 19,20.4855715851 19,19.6195461814 18.5,19.6195461814 18.25,19.1865334795" fill="#f7d488" stroke="#222222" stroke-width="0.02" />
<polygon points="17.5,17.8874953738 17.5,17.02146997 17,17.02146997 16.5,17.8874953738 16.75,18.3205080757 16,18.7535207776 16,19.6195461814 16.5,19.6195461814 16.75,19.1865334795 17.5,19.6195461814 18.25,19.1865334795 18,18.7535207776 18.25,18.3205080757" fill="#f7d488" stroke="#222222" stroke-width="0.02" />
<polygon points="16,15.2894191624 16.75,15.7224318643 17,15.2894191624 16.5,14.4233937587 16,14.4233937587 16,13.5573683549 15.25,13.124355653 15,13.5573683549 15.25,13.9903810568 14.5,14.4233937587 14.5,15.2894191624 15,15.2894191624 15.25,15.7224318643" fill="#f7d488" stroke="#222222" stroke-width="0.02" />
<polygon points="16,17.02146997 16,17.8874953738 16.5,17.8874953738 17,17.02146997 16.75,16.5884572681 17.5,16.1554445662 17.5,15.2894191624 17,15.2894191624 16.75,15.7224318643 16,15.2894191624 15.25,15.7224318643 15.5,16.1554445662 15.25,16.5884572681" fill="#f7d488" stroke="#222222" stroke-width="0.02" />
<polygon points="20.5,23.0836477965 20.5,22.2176223927 20,22.2176223927 19.5,23.0836477965 19.75,23.5166604984 19,23.9496732003 19,24.8156986041 19.5,24.8156986041 19.75,24.3826859022 20.5,24.8156986041 21.25,24.3826859022 21,23.9496732003 21.25,23.5166604984" fill="#f7d488" stroke="#222222" stroke-width="0.02" />
<polygon points="23.5,23.0836477965 23.5,22.2176223927 23,22.2176223927 22.5,23.0836477965 22.75,23.5166604984 22,23.9496732003 22,24.8156986041 22.5,24.8156986041 22.75,24.3826859022 23.5,24.8156986041 24.25,24.3826859022 24,23.9496732003 24.25,23.5166604984" fill="#f7d488" stroke="#222222" stroke-width="0.02" />
<polygon points="22,22.2176223927 22.75,22.6506350946 23,22.2176223927 22.5,21.3515969889 22,21.3515969889 22,20.4855715851 21.25,20.0525588833 21,20.4855715851 21.25,20.918584287 20.5,21.3515969889 20.5,22.2176223927 21,22.2176223927 21.25,22.6506350946" fill="#f7d488" stroke="#222222" stroke-width="0.02" />
<polygon points="22,23.9496732003 22,24.8156986041 21.5,24.8156986041 21,23.9496732003 21.25,23.5166604984 20.5,23.0836477965 20.5,22.2176223927 21,22.2176223927 21.25,22.6506350946 22,22.2176223927 22.75,22.6506350946 22.5,23.0836477965 22.75,23.5166604984" fill="#f7d488" stroke="#222222" stroke-width="0.02" />
<polygon points="25,23.9496732003 25,23.0836477965 24.5,23.0836477965 24,23.9496732003 24.25,24.3826859022 23.5,24.8156986041 23.5,25.6817240079 24,25.6817240079 24.25,25.248711306 25,25.6817240079 25.75,25.248711306 25.5,24.8156986041 25.75,24.3826859022" fill="#f7d488" stroke="#222222" stroke-width="0.02" />
<polygon points="28,23.9496732003 28,23.0836477965 27.5,23.0836477965 27,23.9496732003 27.25,24.3826859022 26.5,24.8156986041 26.5,25.6817240079 27,25.6817240079 27.25,25.248711306 28,25.6817240079 28.75,25.248711306 28.5,24.8156986041 28.75,24.3826859022" fill="#f7d488" stroke="#222222" stroke-width="0.02" />
<polygon points="26.5,23.0836477965 27.25,23.5166604984 27.5,23.0836477965 27,22.2176223927 26.5,22.2176223927 26.5,21.3515969889 25.75,20.918584287 25.5,21.3515969889 25.75,21.7846096908 25,22.2176223927 25,23.0836477965 25.5,23.0836477965 25.75,23.5166604984" fill="#f7d488" stroke="#222222" stroke-width="0.02" />
<polygon points="26.5,24.8156986041 26.5,25.6817240079 26,25.6817240079 25.5,24.8156986041 25.75,24.3826859022 25,23.9496732003 25,23.0836477965 25.5,23.0836477965 25.75,23.5166604984 26.5,23.0836477965 27.25,23.5166604984 27,23.9496732003 27.25,24.3826859022" fill="#f7d488" stroke="#222222" stroke-width="0.02" />
<polygon points="25,18.7535207776 25.75,19.1865334795 26,18.7535207776 25.5,17.8874953738 25,17.8874953738 25,17.02146997 24.25,16.5884572681 24,17.02146997 24.25,17.4544826719 23.5,17.8874953738 23.5,18.7535207776 24,18.7535207776 24.25,19.1865334795" fill="#f7d488" stroke="#222222" stroke-width="0.02" />
<polygon points="23.5,21.3515969889 24.25,21.7846096908 24.5,21.3515969889 24,20.4855715851 23.5,20.4855715851 23.5,19.6195461814 22.75,19.1865334795 22.5,19.6195461814 22.75,20.0525588833 22,20.4855715851 22,21.3515969889 22.5,21.3515969889 22.75,21.7846096908" fill="#f7d488" stroke="#222222" stroke-width="0.02" />
<polygon points="25,20.4855715851 24.25,20.918584287 24.5,21.3515969889 25.5,21.3515969889 25.75,20.918584287 26.5,21.3515969889 27.25,20.918584287 27,20.4855715851 26.5,20.4855715851 26.5,19.6195461814 25.75,19.1865334795 25.5,19.6195461814 25,19.6195461814" fill="#f7d488" stroke="#222222" stroke-width="0.02" />
<polygon points="23.5,19.6195461814 22.75,19.1865334795 23,18.7535207776 24,18.7535207776 24.25,19.1865334795 25,18.7535207776 25.75,19.1865334795 25.5,19.6195461814 25,19.6195461814 25,20.4855715851 24.25,20.918584287 24,20.4855715851 23.5,20.4855715851" fill="#f7d488" stroke="#222222" stroke-width="0.02" />
<polygon points="25,22.2176223927 25.75,21.7846096908 25.5,21.3515969889 24.5,21.3515969889 24.25,21.7846096908 23.5,21.3515969889 22.75,21.7846096908 23,22.2176223927 23.5,22.2176223927 23.5,23.0836477965 24.25,23.5166604984 24.5,23.0836477965 25,23.0836477965" fill="#f7d488" stroke="#222222" stroke-width="0.02" />
<polygon points="22,18.7535207776 22,17.8874953738 21.5,17.8874953738 21,18.7535207776 21.25,19.1865334795 20.5,19.6195461814 20.5,20.4855715851 21,20.4855715851 21.25,20.0525588833 22,20.4855715851 22.75,20.0525588833 22.5,19.6195461814 22.75,19.1865334795" fill="#f7d488" stroke="#222222" stroke-width="0.02" />
<polygon points="23.5,17.8874953738 24.25,17.4544826719 24,17.02146997 23,17.02146997 22.75,17.4544826719 22,17.02146997 21.25,17.4544826719 21.5,17.8874953738 22,17.8874953738 22,18.7535207776 22.75,19.1865334795 23,18.7535207776 23.5,18.7535207776" fill="#f7d488" stroke="#222222" stroke-width="0.02" />
<polygon points="19,22.2176223927 19,21.3515969889 18.5,21.3515969889 18,22.2176223927 18.25,22.6506350946 17.5,23.0836477965 17.5,23.9496732003 18,23.9496732003 18.25,23.5166604984 19,23.9496732003 19.75,23.5166604984 19.5,23.0836477965 19.75,22.6506350946" fill="#f7d488" stroke="#222222" stroke-width="0.02" />
<polygon points="20.5,21.3515969889 21.25,20.918584287 21,20.4855715851 20,20.4855715851 19.75,20.918584287 19,20.4855715851 18.25,20.918584287 18.5,21.3515969889 19,21.3515969889 19,22.2176223927 19.75,22.6506350946 20,22.2176223927 20.5,22.2176223927" fill="#f7d488" stroke="#222222" stroke-width="0.02" />
<polygon points="22,25.6817240079 21.25,26.1147367097 21.5,26.5477494116 22.5,26.5477494116 22.75,26.1147367097 23.5,26.5477494116 24.25,26.1147367097 24,25.6817240079 23.5,25.6817240079 23.5,24.8156986041 22.75,24.3826859022 22.5,24.8156986041 22,24.8156986041" fill="#f7d488" stroke="#222222" stroke-width="0.02" />
<polygon points="20.5,24.8156986041 19.75,24.3826859022 19.5,24.8156986041 20,25.6817240079 20.5,25.6817240079 20.5,26.5477494116 21.25,26.9807621135 21.5,26.5477494116 21.25,26.1147367097 22,25.6817240079 22,24.8156986041 21.5,24.8156986041 21.25,24.3826859022" fill="#f7d488" stroke="#222222" stroke-width="0.02" />
<polygon points="26.5,26.5477494116 25.75,26.9807621135 26,27.4137748154 27,27.4137748154 27.25,26.9807621135 28,27.4137748154 28.75,26.9807621135 28.5,26.5477494116 28,26.5477494116 28,25.6817240079 27.25,25.248711306 27,25.6817240079 26.5,25.6817240079" fill="#f7d488" stroke="#222222" stroke-width="0.02" />
<polygon points="25,25.6817240079 24.25,25.248711306 24,25.6817240079 24.5,26.5477494116 25,26.5477494116 25,27.4137748154 25.75,27.8467875173 26,27.4137748154 25.75,26.9807621135 26.5,26.5477494116 26.5,25.6817240079 26,25.6817240079 25.75,25.248711306" fill="#f7d488" stroke="#222222" stroke-width="0.02" />
<polygon points="28,22.2176223927 27.25,21.7846096908 27,22.2176223927 27.5,23.0836477965 28,23.0836477965 28,23.9496732003 28.75,24.3826859022 29,23.9496732003 28.75,23.5166604984 29.5,23.0836477965 29.5,22.2176223927 29,22.2176223927 28.75,21.7846096908" fill="#f7d488" stroke="#222222" stroke-width="0.02" />
<polygon points="28,20.4855715851 28,19.6195461814 27.5,19.6195461814 27,20.4855715851 27.25,20.918584287 26.5,21.3515969889 26.5,22.2176223927 27,22.2176223927 27.25,21.7846096908 28,22.2176223927 28.75,21.7846096908 28.5,21.3515969889 28.75,20.918584287" fill="#f7d488" stroke="#222222" stroke-width="0.02" />
<polygon points="26.5,17.8874953738 27.25,18.3205080757 27.5,17.8874953738 27,17.02146997 26.5,17.02146997 26.5,16.1554445662 25.75,15.7224318643 25.5,16.1554445662 25.75,16.5884572681 25,17.02146997 25,17.8874953738 25.5,17.8874953738 25.75,18.3205080757" fill="#f7d488" stroke="#222222" stroke-width="0.02" />
<polygon points="26.5,19.6195461814 26.5,20.4855715851 27,20.4855715851 27.5,19.6195461814 27.25,19.1865334795 28,18.7535207776 28,17.8874953738 27.5,17.8874953738 27.25,18.3205080757 26.5,17.8874953738 25.75,18.3205080757 26,18.7535207776 25.75,19.1865334795" fill="#f7d488" stroke="#222222" stroke-width="0.02" />
<polygon points="22,8.36121593217 22.75,8.79422863406 23,8.36121593217 22.5,7.49519052838 22,7.49519052838 22,6.6291651246 21.25,6.19615242271 21,6.6291651246 21.25,7.06217782649 20.5,7.49519052838 20.5,8.36121593217 21,8.36121593217 21.25,8.79422863406" fill="#f7d488" stroke="#222222" stroke-width="0.02" />
<polygon points="20.5,10.9592921435 21.25,11.3923048454 21.5,10.9592921435 21,10.0932667397 20.5,10.0932667397 20.5,9.22724133595 19.75,8.79422863406 19.5,9.22724133595 19.75,9.66025403784 19,10.0932667397 19,10.9592921435 19.5,10.9592921435 19.75,11.3923048454" fill="#f7d488" stroke="#222222" stroke-width="0.02" />
<polygon points="22,10.0932667397 21.25,10.5262794416 21.5,10.9592921435 22.5,10.9592921435 22.75,10.5262794416 23.5,10.9592921435 24.25,10.5262794416 24,10.0932667397 23.5,10.0932667397 23.5,9.22724133595 22.75,8.79422863406 22.5,9.22724133595 22,9.22724133595" fill="#f7d488" stroke="#222222" stroke-width="0.02" />
<polygon points="20.5,9.22724133595 19.75,8.79422863406 20,8.36121593217 21,8.36121593217 21.25,8.79422863406 22,8.36121593217 22.75,8.79422863406 22.5,9.22724133595 22,9.22724133595 22,10.0932667397 21.25,10.5262794416 21,10.0932667397 20.5,10.0932667397" fill="#f7d488" stroke="#222222" stroke-width="0.02" />
<polygon points="19,11.8253175473 19.75,12.2583302492 20,11.8253175473 19.5,10.9592921435 19,10.9592921435 19,10.0932667397 18.25,9.66025403784 18,10.0932667397 18.25,10.5262794416 17.5,10.9592921435 17.5,11.8253175473 18,11.8253175473 18.25,12.2583302492" fill="#f7d488" stroke="#222222" stroke-width="0.02" />
<polygon points="17.5,14.4233937587 18.25,14.8564064606 18.5,14.4233937587 18,13.5573683549 17.5,13.5573683549 17.5,12.6913429511 16.75,12.2583302492 16.5,12.6913429511 16.75,13.124355653 16,13.5573683549 16,14.4233937587 16.5,14.4233937587 16.75,14.8564064606" fill="#f7d488" stroke="#222222" stroke-width="0.02" />
<polygon points="19,13.5573683549 18.25,13.9903810568 18.5,14.4233937587 19.5,14.4233937587 19.75,13.9903810568 20.5,14.4233937587 21.25,13.9903810568 21,13.5573683549 20.5,13.5573683549 20.5,12.6913429511 19.75,12.2583302492 19.5,12.6913429511 19,12.6913429511" fill="#f7d488" stroke="#222222" stroke-width="0.02" />
<polygon points="17.5,12.6913429511 16.75,12.2583302492 17,11.8253175473 18,11.8253175473 18.25,12.2583302492 19,11.8253175473 19.75,12.2583302492 19.5,12.6913429511 19,12.6913429511 19,13.5573683549 18.25,13.9903810568 18,13.5573683549 17.5,13.5573683549" fill="#f7d488" stroke="#222222" stroke-width="0.02" />
<polygon points="23.5,14.4233937587 22.75,14.8564064606 23,15.2894191624 24,15.2894191624 24.25,14.8564064606 25,15.2894191624 25.75,14.8564064606 25.5,14.4233937587 25,14.4233937587 25,13.5573683549 24.25,13.124355653 24,13.5573683549 23.5,13.5573683549" fill="#f7d488" stroke="#222222" stroke-width="0.02" />
<polygon points="22,11.8253175473 21.25,12.2583302492 21.5,12.6913429511 22.5,12.6913429511 22.75,12.2583302492 23.5,12.6913429511 24.25,12.2583302492 24,11.8253175473 23.5,11.8253175473 23.5,10.9592921435 22.75,10.5262794416 22.5,10.9592921435 22,10.9592921435" fill="#f7d488" stroke="#222222" stroke-width="0.02" />
<polygon points="22,13.5573683549 22,12.6913429511 21.5,12.6913429511 21,13.5573683549 21.25,13.9903810568 20.5,14.4233937587 20.5,15.2894191624 21,15.2894191624 21.25,14.8564064606 22,15.2894191624 22.75,14.8564064606 22.5,14.4233937587 22.75,13.9903810568" fill="#f7d488" stroke="#222222" stroke-width="0.02" />
<polygon points="23.5,12.6913429511 24.25,12.2583302492 24.5,12.6913429511 24,13.5573683549 23.5,13.5573683549 23.5,14.4233937587 22.75,14.8564064606 22.5,14.4233937587 22.75,13.9903810568 22,13.5573683549 22,12.6913429511 22.5,12.6913429511 22.75,12.2583302492" fill="#f7d488" stroke="#222222" stroke-width="0.02" />
<polygon points="20.5,12.6913429511 20.5,13.5573683549 21,13.5573683549 21.5,12.6913429511 21.25,12.2583302492 22,11.8253175473 22,10.9592921435 21.5,10.9592921435 21.25,11.3923048454 20.5,10.9592921435 19.75,11.3923048454 20,11.8253175473 19.75,12.2583302492" fill="#f7d488" stroke="#222222" stroke-width="0.02" />
<polygon points="25,11.8253175473 25.75,12.2583302492 26,11.8253175473 25.5,10.9592921435 25,10.9592921435 25,10.0932667397 24.25,9.66025403784 24,10.0932667397 24.25,10.5262794416 23.5,10.9592921435 23.5,11.8253175473 24,11.8253175473 24.25,12.2583302492" fill="#f7d488" stroke="#222222" stroke-width="0.02" />
<polygon points="25,13.5573683549 25,14.4233937587 25.5,14.4233937587 26,13.5573683549 25.75,13.124355653 26.5,12.6913429511 26.5,11.8253175473 26,11.8253175473 25.75,12.2583302492 25,11.8253175473 24.25,12.2583302492 24.5,12.6913429511 24.25,13.124355653" fill="#f7d488" stroke="#222222" stroke-width="0.02" />
<polygon points="23.5,7.49519052838 24.25,7.92820323028 24.5,7.49519052838 24,6.6291651246 23.5,6.6291651246 23.5,5.76313972081 22.75,5.33012701892 22.5,5.76313972081 22.75,6.19615242271 22,6.6291651246 22,7.49519052838 22.5,7.49519052838 22.75,7.92820323028" fill="#f7d488" stroke="#222222" stroke-width="0.02" />
<polygon points="23.5,9.22724133595 23.5,10.0932667397 24,10.0932667397 24.5,9.22724133595 24.25,8.79422863406 25,8.36121593217 25,7.49519052838 24.5,7.49519052838 24.25,7.92820323028 23.5,7.49519052838 22.75,7.92820323028 23,8.36121593217 22.75,8.79422863406" fill="#f7d488" stroke="#222222" stroke-width="0.02" />
<polygon points="19,8.36121593217 19,7.49519052838 18.5,7.49519052838 18,8.36121593217 18.25,8.79422863406 17.5,9.22724133595 17.5,10.0932667397 18,10.0932667397 18.25,9.66025403784 19,10.0932667397 19.75,9.66025403784 19.5,9.22724133595 19.75,8.79422863406" fill="#f7d488" stroke="#222222" stroke-width="0.02" />
<polygon points="20.5,7.49519052838 21.25,7.06217782649 21,6.6291651246 20,6.6291651246 19.75,7.06217782649 19,6.6291651246 18.25,7.06217782649 18.5,7.49519052838 19,7.49519052838 19,8.36121593217 19.75,8.79422863406 20,8.36121593217 20.5,8.36121593217" fill="#f7d488" stroke="#222222" stroke-width="0.02" />
<polygon points="16,11.8253175473 16,10.9592921435 15.5,10.9592921435 15,11.8253175473 15.25,12.2583302492 14.5,12.6913429511 14.5,13.5573683549 15,13.5573683549 15.25,13.124355653 16,13.5573683549 16.75,13.124355653 16.5,12.6913429511 16.75,12.2583302492" fill="#f7d488" stroke="#222222" stroke-width="0.02" />
<polygon points="17.5,10.9592921435 18.25,10.5262794416 18,10.0932667397 17,10.0932667397 16.75,10.5262794416 16,10.0932667397 15.25,10.5262794416 15.5,10.9592921435 16,10.9592921435 16,11.8253175473 16.75,12.2583302492 17,11.8253175473 17.5,11.8253175473" fill="#f7d488" stroke="#222222" stroke-width="0.02" />
<polygon points="19,15.2894191624 19.75,14.8564064606 19.5,14.4233937587 18.5,14.4233937587 18.25,14.8564064606 17.5,14.4233937587 16.75,14.8564064606 17,15.2894191624 17.5,15.2894191624 17.5,16.1554445662 18.25,16.5884572681 18.5,16.1554445662 19,16.1554445662" fill="#f7d488" stroke="#222222" stroke-width="0.02" />
<polygon points="20.5,16.1554445662 21.25,16.5884572681 21.5,16.1554445662 21,15.2894191624 20.5,15.2894191624 20.5,14.4233937587 19.75,13.9903810568 19.5,14.4233937587 19.75,14.8564064606 19,15.2894191624 19,16.1554445662 19.5,16.1554445662 19.75,16.5884572681" fill="#f7d488" stroke="#222222" stroke-width="0.02" />
<polygon points="23.5,16.1554445662 22.75,16.5884572681 23,17.02146997 24,17.02146997 24.25,16.5884572681 25,17.02146997 25.75,16.5884572681 25.5,16.1554445662 25,16.1554445662 25,15.2894191624 24.25,14.8564064606 24,15.2894191624 23.5,15.2894191624" fill="#f7d488" stroke="#222222" stroke-width="0.02" />
<polygon points="22,15.2894191624 21.25,14.8564064606 21,15.2894191624 21.5,16.1554445662 22,16.1554445662 22,17.02146997 22.75,17.4544826719 23,17.02146997 22.75,16.5884572681 23.5,16.1554445662 23.5,15.2894191624 23,15.2894191624 22.75,14.8564064606" fill="#f7d488" stroke="#222222" stroke-width="0.02" />
<polygon points="19,17.02146997 19.75,16.5884572681 19.5,16.1554445662 18.5,16.1554445662 18.25,16.5884572681 17.5,16.1554445662 16.75,16.5884572681 17,17.02146997 17.5,17.02146997 17.5,17.8874953738 18.25,18.3205080757 18.5,17.8874953738 19,17.8874953738" fill="#f7d488" stroke="#222222" stroke-width="0.02" />
<polygon points="20.5,19.6195461814 21.25,19.1865334795 21,18.7535207776 20,18.7535207776 19.75,19.1865334795 19,18.7535207776 18.25,19.1865334795 18.5,19.6195461814 19,19.6195461814 19,20.4855715851 19.75,20.918584287 20,20.4855715851 20.5,20.4855715851" fill="#f7d488" stroke="#222222" stroke-width="0.02" />
<polygon points="20.5,17.8874953738 20.5,18.7535207776 21,18.7535207776 21.5,17.8874953738 21.25,17.4544826719 22,17.02146997 22,16.1554445662 21.5,16.1554445662 21.25,16.5884572681 20.5,16.1554445662 19.75,16.5884572681 20,17.02146997 19.75,17.4544826719" fill="#f7d488" stroke="#222222" stroke-width="0.02" />
<polygon points="19,18.7535207776 18.25,19.1865334795 18,18.7535207776 18.5,17.8874953738 19,17.8874953738 19,17.02146997 19.75,16.5884572681 20,17.02146997 19.75,17.4544826719 20.5,17.8874953738 20.5,18.7535207776 20,18.7535207776 19.75,19.1865334795" fill="#f7d488" stroke="#222222" stroke-width="0.02" />
<polygon points="16,4.89711431703 16.75,4.46410161514 16.5,4.03108891325 15.5,4.03108891325 15.25,4.46410161514 14.5,4.03108891325 13.75,4.46410161514 14,4.89711431703 14.5,4.89711431703 14.5,5.76313972081 15.25,6.19615242271 15.5,5.76313972081 16,5.76313972081" fill="#f7d488" stroke="#222222" stroke-width="0.02" />
<polygon points="17.5,5.76313972081 18.25,6.19615242271 18.5,5.76313972081 18,4.89711431703 17.5,4.89711431703 17.5,4.03108891325 16.75,3.59807621135 16.5,4.03108891325 16.75,4.46410161514 16,4.89711431703 16,5.76313972081 16.5,5.76313972081 16.75,6.19615242271" fill="#f7d488" stroke="#222222" stroke-width="0.02" />
<polygon points="16,6.6291651246 16.75,6.19615242271 16.5,5.76313972081 15.5,5.76313972081 15.25,6.19615242271 14.5,5.76313972081 13.75,6.19615242271 14,6.6291651246 14.5,6.6291651246 14.5,7.49519052838 15.25,7.92820323028 15.5,7.49519052838 16,7.49519052838" fill="#f7d488" stroke="#222222" stroke-width="0.02" />
<polygon points="17.5,9.22724133595 18.25,8.79422863406 18,8.36121593217 17,8.36121593217 16.75,8.79422863406 16,8.36121593217 15.25,8.79422863406 15.5,9.22724133595 16,9.22724133595 16,10.0932667397 16.75,10.5262794416 17,10.0932667397 17.5,10.0932667397" fill="#f7d488" stroke="#222222" stroke-width="0.02" />
<polygon points="17.5,7.49519052838 17.5,8.36121593217 18,8.36121593217 18.5,7.49519052838 18.25,7.06217782649 19,6.6291651246 19,5.76313972081 18.5,5.76313972081 18.25,6.19615242271 17.5,5.76313972081 16.75,6.19615242271 17,6.6291651246 16.75,7.06217782649" fill="#f7d488" stroke="#222222" stroke-width="0.02" />
<polygon points="16,8.36121593217 15.25,8.79422863406 15,8.36121593217 15.5,7.49519052838 16,7.49519052838 16,6.6291651246 16.75,6.19615242271 17,6.6291651246 16.75,7.06217782649 17.5,7.49519052838 17.5,8.36121593217 17,8.36121593217 16.75,8.79422863406" fill="#f7d488" stroke="#222222" stroke-width="0.02" />
<polygon points="14.5,9.22724133595 13.75,8.79422863406 13.5,9.22724133595 14,10.0932667397 14.5,10.0932667397 14.5,10.9592921435 15.25,11.3923048454 15.5,10.9592921435 15.25,10.5262794416 16,10.0932667397 16,9.22724133595 15.5,9.22724133595 15.25,8.79422863406" fill="#f7d488" stroke="#222222" stroke-width="0.02" />
<polygon points="14.5,7.49519052838 14.5,6.6291651246 14,6.6291651246 13.5,7.49519052838 13.75,7.92820323028 13,8.36121593217 13,9.22724133595 13.5,9.22724133595 13.75,8.79422863406 14.5,9.22724133595 15.25,8.79422863406 15,8.36121593217 15.25,7.92820323028" fill="#f7d488" stroke="#222222" stroke-width="0.02" />
<polygon points="11.5,10.9592921435 11.5,10.0932667397 11,10.0932667397 10.5,10.9592921435 10.75,11.3923048454 10,11.8253175473 10,12.6913429511 10.5,12.6913429511 10.75,12.2583302492 11.5,12.6913429511 12.25,12.2583302492 12,11.8253175473 12.25,11.3923048454" fill="#f7d488" stroke="#222222" stroke-width="0.02" />
<polygon points="14.5,10.9592921435 14.5,10.0932667397 14,10.0932667397 13.5,10.9592921435 13.75,11.3923048454 13,11.8253175473 13,12.6913429511 13.5,12.6913429511 13.75,12.2583302492 14.5,12.6913429511 15.25,12.2583302492 15,11.8253175473 15.25,11.3923048454" fill="#f7d488" stroke="#222222" stroke-width="0.02" />
<polygon points="13,10.0932667397 13.75,10.5262794416 14,10.0932667397 13.5,9.22724133595 13,9.22724133595 13,8.36121593217 12.25,7.92820323028 12,8.36121593217 12.25,8.79422863406 11.5,9.22724133595 11.5,10.0932667397 12,10.0932667397 12.25,10.5262794416" fill="#f7d488" stroke="#222222" stroke-width="0.02" />
<polygon points="13,11.8253175473 13,12.6913429511 12.5,12.6913429511 12,11.8253175473 12.25,11.3923048454 11.5,10.9592921435 11.5,10.0932667397 12,10.0932667397 12.25,10.5262794416 13,10.0932667397 13.75,10.5262794416 13.5,10.9592921435 13.75,11.3923048454" fill="#f7d488" stroke="#222222" stroke-width="0.02" />
<polygon points="13,13.5573683549 12.25,13.9903810568 12.5,14.4233937587 13.5,14.4233937587 13.75,13.9903810568 14.5,14.4233937587 15.25,13.9903810568 15,13.5573683549 14.5,13.5573683549 14.5,12.6913429511 13.75,12.2583302492 13.5,12.6913429511 13,12.6913429511" fill="#f7d488" stroke="#222222" stroke-width="0.02" />
<polygon points="11.5,12.6913429511 10.75,12.2583302492 10.5,12.6913429511 11,13.5573683549 11.5,13.5573683549 11.5,14.4233937587 12.25,14.8564064606 12.5,14.4233937587 12.25,13.9903810568 13,13.5573683549 13,12.6913429511 12.5,12.6913429511 12.25,12.2583302492" fill="#f7d488" stroke="#222222" stroke-width="0.02" />
<polygon points="8.5,12.6913429511 9.25,12.2583302492 9,11.8253175473 8,11.8253175473 7.75,12.2583302492 7,11.8253175473 6.25,12.2583302492 6.5,12.6913429511 7,12.6913429511 7,13.5573683549 7.75,13.9903810568 8,13.5573683549 8.5,13.5573683549" fill="#f7d488" stroke="#222222" stroke-width="0.02" />
<polygon points="10,13.5573683549 10.75,13.9903810568 11,13.5573683549 10.5,12.6913429511 10,12.6913429511 10,11.8253175473 9.25,11.3923048454 9,11.8253175473 9.25,12.2583302492 8.5,12.6913429511 8.5,13.5573683549 9,13.5573683549 9.25,13.9903810568" fill="#f7d488" stroke="#222222" stroke-width="0.02" />
<polygon points="8.5,14.4233937587 9.25,13.9903810568 9,13.5573683549 8,13.5573683549 7.75,13.9903810568 7,13.5573683549 6.25,13.9903810568 6.5,14.4233937587 7,14.4233937587 7,15.2894191624 7.75,15.7224318643 8,15.2894191624 8.5,15.2894191624" fill="#f7d488" stroke="#222222" stroke-width="0.02" />
<polygon points="10,17.02146997 10.75,16.5884572681 10.5,16.1554445662 9.5,16.1554445662 9.25,16.5884572681 8.5,16.1554445662 7.75,16.5884572681 8,17.02146997 8.5,17.02146997 8.5,17.8874953738 9.25,18.3205080757 9.5,17.8874953738 10,17.8874953738" fill="#f7d488" stroke="#222222" stroke-width="0.02" />
<polygon points="10,15.2894191624 10,16.1554445662 10.5,16.1554445662 11,15.2894191624 10.75,14.8564064606 11.5,14.4233937587 11.5,13.5573683549 11,13.5573683549 10.75,13.9903810568 10,13.5573683549 9.25,13.9903810568 9.5,14.4233937587 9.25,14.8564064606" fill="#f7d488" stroke="#222222" stroke-width="0.02" />
<polygon points="8.5,16.1554445662 7.75,16.5884572681 7.5,16.1554445662 8,15.2894191624 8.5,15.2894191624 8.5,14.4233937587 9.25,13.9903810568 9.5,14.4233937587 9.25,14.8564064606 10,15.2894191624 10,16.1554445662 9.5,16.1554445662 9.25,16.5884572681" fill="#f7d488" stroke="#222222" stroke-width="0.02" />
<polygon points="7,17.02146997 6.25,16.5884572681 6,17.02146997 6.5,17.8874953738 7,17.8874953738 7,18.7535207776 7.75,19.1865334795 8,18.7535207776 7.75,18.3205080757 8.5,17.8874953738 8.5,17.02146997 8,17.02146997 7.75,16.5884572681" fill="#f7d488" stroke="#222222" stroke-width="0.02" />
<polygon points="7,15.2894191624 7,14.4233937587 6.5,14.4233937587 6,15.2894191624 6.25,15.7224318643 5.5,16.1554445662 5.5,17.02146997 6,17.02146997 6.25,16.5884572681 7,17.02146997 7.75,16.5884572681 7.5,16.1554445662 7.75,15.7224318643" fill="#f7d488" stroke="#222222" stroke-width="0.02" />
<polygon points="4,18.7535207776 4,17.8874953738 3.5,17.8874953738 3,18.7535207776 3.25,19.1865334795 2.5,19.6195461814 2.5,20.4855715851 3,20.4855715851 3.25,20.0525588833 4,20.4855715851 4.75,20.0525588833 4.5,19.6195461814 4.75,19.1865334795" fill="#f7d488" stroke="#222222" stroke-width="0.02" />
<polygon points="7,18.7535207776 7,17.8874953738 6.5,17.8874953738 6,18.7535207776 6.25,19.1865334795 5.5,19.6195461814 5.5,20.4855715851 6,20.4855715851 6.25,20.0525588833 7,20.4855715851 7.75,20.0525588833 7.5,19.6195461814 7.75,19.1865334795" fill="#f7d488" stroke="#222222" stroke-width="0.02" />
<polygon points="5.5,17.8874953738 6.25,18.3205080757 6.5,17.8874953738 6,17.02146997 5.5,17.02146997 5.5,16.1554445662 4.75,15.7224318643 4.5,16.1554445662 4.75,16.5884572681 4,17.02146997 4,17.8874953738 4.5,17.8874953738 4.75,18.3205080757" fill="#f7d488" stroke="#222222" stroke-width="0.02" />
<polygon points="5.5,19.6195461814 5.5,20.4855715851 5,20.4855715851 4.5,19.6195461814 4.75,19.1865334795 4,18.7535207776 4,17.8874953738 4.5,17.8874953738 4.75,18.3205080757 5.5,17.8874953738 6.25,18.3205080757 6,18.7535207776 6.25,19.1865334795" fill="#f7d488" stroke="#222222" stroke-width="0.02" />
<polygon points="2.5,17.8874953738 2.5,17.02146997 2,17.02146997 1.5,17.8874953738 1.75,18.3205080757 1,18.7535207776 1,19.6195461814 1.5,19.6195461814 1.75,19.1865334795 2.5,19.6195461814 3.25,19.1865334795 3,18.7535207776 3.25,18.3205080757" fill="#f7d488" stroke="#222222" stroke-width="0.02" />
<polygon points="4,17.02146997 4.75,16.5884572681 4.5,16.1554445662 3.5,16.1554445662 3.25,16.5884572681 2.5,16.1554445662 1.75,16.5884572681 2,17.02146997 2.5,17.02146997 2.5,17.8874953738 3.25,18.3205080757 3.5,17.8874953738 4,17.8874953738" fill="#f7d488" stroke="#222222" stroke-width="0.02" />
<polygon points="5.5,21.3515969889 4.75,21.7846096908 5,22.2176223927 6,22.2176223927 6.25,21.7846096908 7,22.2176223927 7.75,21.7846096908 7.5,21.3515969889 7,21.3515969889 7,20.4855715851 6.25,20.0525588833 6,20.4855715851 5.5,20.4855715851" fill="#f7d488" stroke="#222222" stroke-width="0.02" />
<polygon points="4,20.4855715851 3.25,20.0525588833 3,20.4855715851 3.5,21.3515969889 4,21.3515969889 4,22.2176223927 4.75,22.6506350946 5,22.2176223927 4.75,21.7846096908 5.5,21.3515969889 5.5,20.4855715851 5,20.4855715851 4.75,20.0525588833" fill="#f7d488" stroke="#222222" stroke-width="0.02" />
<polygon points="10,27.4137748154 9.25,26.9807621135 9,27.4137748154 9.5,28.2798002192 10,28.2798002192 10,29.145825623 10.75,29.5788383249 11,29.145825623 10.75,28.7128129211 11.5,28.2798002192 11.5,27.4137748154 11,27.4137748154 10.75,26.9807621135" fill="#f7d488" stroke="#222222" stroke-width="0.02" />
<polygon points="10,25.6817240079 10,24.8156986041 9.5,24.8156986041 9,25.6817240079 9.25,26.1147367097 8.5,26.5477494116 8.5,27.4137748154 9,27.4137748154 9.25,26.9807621135 10,27.4137748154 10.75,26.9807621135 10.5,26.5477494116 10.75,26.1147367097" fill="#f7d488" stroke="#222222" stroke-width="0.02" />
<polygon points="11.5,26.5477494116 10.75,26.1147367097 10.5,26.5477494116 11,27.4137748154 11.5,27.4137748154 11.5,28.2798002192 12.25,28.7128129211 12.5,28.2798002192 12.25,27.8467875173 13,27.4137748154 13,26.5477494116 12.5,26.5477494116 12.25,26.1147367097" fill="#f7d488" stroke="#222222" stroke-width="0.02" />
<polygon points="13,23.9496732003 12.25,23.5166604984 12,23.9496732003 12.5,24.8156986041 13,24.8156986041 13,25.6817240079 13.75,26.1147367097 14,25.6817240079 13.75,25.248711306 14.5,24.8156986041 14.5,23.9496732003 14,23.9496732003 13.75,23.5166604984" fill="#f7d488" stroke="#222222" stroke-width="0.02" />
<polygon points="11.5,24.8156986041 12.25,24.3826859022 12,23.9496732003 11,23.9496732003 10.75,24.3826859022 10,23.9496732003 9.25,24.3826859022 9.5,24.8156986041 10,24.8156986041 10,25.6817240079 10.75,26.1147367097 11,25.6817240079 11.5,25.6817240079" fill="#f7d488" stroke="#222222" stroke-width="0.02" />
<polygon points="13,25.6817240079 13.75,26.1147367097 13.5,26.5477494116 12.5,26.5477494116 12.25,26.1147367097 11.5,26.5477494116 10.75,26.1147367097 11,25.6817240079 11.5,25.6817240079 11.5,24.8156986041 12.25,24.3826859022 12.5,24.8156986041 13,24.8156986041" fill="#f7d488" stroke="#222222" stroke-width="0.02" />
<polygon points="14.5,26.5477494116 14.5,27.4137748154 15,27.4137748154 15.5,26.5477494116 15.25,26.1147367097 16,25.6817240079 16,24.8156986041 15.5,24.8156986041 15.25,25.248711306 14.5,24.8156986041 13.75,25.248711306 14,25.6817240079 13.75,26.1147367097" fill="#f7d488" stroke="#222222" stroke-width="0.02" />
<polygon points="13,27.4137748154 12.25,27.8467875173 12.5,28.2798002192 13.5,28.2798002192 13.75,27.8467875173 14.5,28.2798002192 15.25,27.8467875173 15,27.4137748154 14.5,27.4137748154 14.5,26.5477494116 13.75,26.1147367097 13.5,26.5477494116 13,26.5477494116" fill="#f7d488" stroke="#222222" stroke-width="0.02" />
<polygon points="17.5,28.2798002192 16.75,28.7128129211 17,29.145825623 18,29.145825623 18.25,28.7128129211 19,29.145825623 19.75,28.7128129211 19.5,28.2798002192 19,28.2798002192 19,27.4137748154 18.25,26.9807621135 18,27.4137748154 17.5,27.4137748154" fill="#f7d488" stroke="#222222" stroke-width="0.02" />
<polygon points="16,25.6817240079 15.25,26.1147367097 15.5,26.5477494116 16.5,26.5477494116 16.75,26.1147367097 17.5,26.5477494116 18.25,26.1147367097 18,25.6817240079 17.5,25.6817240079 17.5,24.8156986041 16.75,24.3826859022 16.5,24.8156986041 16,24.8156986041" fill="#f7d488" stroke="#222222" stroke-width="0.02" />
<polygon points="16,27.4137748154 16,26.5477494116 15.5,26.5477494116 15,27.4137748154 15.25,27.8467875173 14.5,28.2798002192 14.5,29.145825623 15,29.145825623 15.25,28.7128129211 16,29.145825623 16.75,28.7128129211 16.5,28.2798002192 16.75,27.8467875173" fill="#f7d488" stroke="#222222" stroke-width="0.02" />
<polygon points="17.5,26.5477494116 18.25,26.1147367097 18.5,26.5477494116 18,27.4137748154 17.5,27.4137748154 17.5,28.2798002192 16.75,28.7128129211 16.5,28.2798002192 16.75,27.8467875173 16,27.4137748154 16,26.5477494116 16.5,26.5477494116 16.75,26.1147367097" fill="#f7d488" stroke="#222222" stroke-width="0.02" />
<polygon points="19,25.6817240079 19.75,26.1147367097 20,25.6817240079 19.5,24.8156986041 19,24.8156986041 19,23.9496732003 18.25,23.5166604984 18,23.9496732003 18.25,24.3826859022 17.5,24.8156986041 17.5,25.6817240079 18,25.6817240079 18.25,26.1147367097" fill="#f7d488" stroke="#222222" stroke-width="0.02" />
<polygon points="19,27.4137748154 19,28.2798002192 19.5,28.2798002192 20,27.4137748154 19.75,26.9807621135 20.5,26.5477494116 20.5,25.6817240079 20,25.6817240079 19.75,26.1147367097 19,25.6817240079 18.25,26.1147367097 18.5,26.5477494116 18.25,26.9807621135" fill="#f7d488" stroke="#222222" stroke-width="0.02" />
<polygon points="20.5,30.0118510268 19.75,29.5788383249 19.5,30.0118510268 20,30.8778764306 20.5,30.8778764306 20.5,31.7439018343 21.25,32.1769145362 21.5,31.7439018343 21.25,31.3108891325 22,30.8778764306 22,30.0118510268 21.5,30.0118510268 21.25,29.5788383249" fill="#f7d488" stroke="#222222" stroke-width="0.02" />
<polygon points="20.5,28.2798002192 20.5,27.4137748154 20,27.4137748154 19.5,28.2798002192 19.75,28.7128129211 19,29.145825623 19,30.0118510268 19.5,30.0118510268 19.75,29.5788383249 20.5,30.0118510268 21.25,29.5788383249 21,29.145825623 21.25,28.7128129211" fill="#f7d488" stroke="#222222" stroke-width="0.02" />
<polygon points="22,29.145825623 21.25,28.7128129211 21,29.145825623 21.5,30.0118510268 22,30.0118510268 22,30.8778764306 22.75,31.3108891325 23,30.8778764306 22.75,30.4448637287 23.5,30.0118510268 23.5,29.145825623 23,29.145825623 22.75,28.7128129211" fill="#f7d488" stroke="#222222" stroke-width="0.02" />
<polygon points="23.5,26.5477494116 22.75,26.1147367097 22.5,26.5477494116 23,27.4137748154 23.5,27.4137748154 23.5,28.2798002192 24.25,28.7128129211 24.5,28.2798002192 24.25,27.8467875173 25,27.4137748154 25,26.5477494116 24.5,26.5477494116 24.25,26.1147367097" fill="#f7d488" stroke="#222222" stroke-width="0.02" />
<polygon points="22,27.4137748154 22.75,26.9807621135 22.5,26.5477494116 21.5,26.5477494116 21.25,26.9807621135 20.5,26.5477494116 19.75,26.9807621135 20,27.4137748154 20.5,27.4137748154 20.5,28.2798002192 21.25,28.7128129211 21.5,28.2798002192 22,28.2798002192" fill="#f7d488" stroke="#222222" stroke-width="0.02" />
<polygon points="23.5,28.2798002192 24.25,28.7128129211 24,29.145825623 23,29.145825623 22.75,28.7128129211 22,29.145825623 21.25,28.7128129211 21.5,28.2798002192 22,28.2798002192 22,27.4137748154 22.75,26.9807621135 23,27.4137748154 23.5,27.4137748154" fill="#f7d488" stroke="#222222" stroke-width="0.02" />
<polygon points="25,29.145825623 25,30.0118510268 25.5,30.0118510268 26,29.145825623 25.75,28.7128129211 26.5,28.2798002192 26.5,27.4137748154 26,27.4137748154 25.75,27.8467875173 25,27.4137748154 24.25,27.8467875173 24.5,28.2798002192 24.25,28.7128129211" fill="#f7d488" stroke="#222222" stroke-width="0.02" />
<polygon points="23.5,30.0118510268 22.75,30.4448637287 23,30.8778764306 24,30.8778764306 24.25,30.4448637287 25,30.8778764306 25.75,30.4448637287 25.5,30.0118510268 25,30.0118510268 25,29.145825623 24.25,28.7128129211 24,29.145825623 23.5,29.145825623" fill="#f7d488" stroke="#222222" stroke-width="0.02" />
<polygon points="28,30.8778764306 27.25,31.3108891325 27.5,31.7439018343 28.5,31.7439018343 28.75,31.3108891325 29.5,31.7439018343 30.25,31.3108891325 30,30.8778764306 29.5,30.8778764306 29.5,30.0118510268 28.75,29.5788383249 28.5,30.0118510268 28,30.0118510268" fill="#f7d488" stroke="#222222" stroke-width="0.02" />
<polygon points="26.5,28.2798002192 25.75,28.7128129211 26,29.145825623 27,29.145825623 27.25,28.7128129211 28,29.145825623 28.75,28.7128129211 28.5,28.2798002192 28,28.2798002192 28,27.4137748154 27.25,26.9807621135 27,27.4137748154 26.5,27.4137748154" fill="#f7d488" stroke="#222222" stroke-width="0.02" />
<polygon points="26.5,30.0118510268 26.5,29.145825623 26,29.145825623 25.5,30.0118510268 25.75,30.4448637287 25,30.8778764306 25,31.7439018343 25.5,31.7439018343 25.75,31.3108891325 26.5,31.7439018343 27.25,31.3108891325 27,30.8778764306 27.25,30.4448637287" fill="#f7d488" stroke="#222222" stroke-width="0.02" />
<polygon points="28,29.145825623 28.75,28.7128129211 29,29.145825623 28.5,30.0118510268 28,30.0118510268 28,30.8778764306 27.25,31.3108891325 27,30.8778764306 27.25,30.4448637287 26.5,30.0118510268 26.5,29.145825623 27,29.145825623 27.25,28.7128129211" fill="#f7d488" stroke="#222222" stroke-width="0.02" />
<polygon points="28,32.6099272381 27.25,33.04293994 27.5,33.4759526419 28.5,33.4759526419 28.75,33.04293994 29.5,33.4759526419 30.25,33.04293994 30,32.6099272381 29.5,32.6099272381 29.5,31.7439018343 28.75,31.3108891325 28.5,31.7439018343 28,31.7439018343" fill="#f7d488" stroke="#222222" stroke-width="0.02" />
<polygon points="26.5,31.7439018343 25.75,31.3108891325 25.5,31.7439018343 26,32.6099272381 26.5,32.6099272381 26.5,33.4759526419 27.25,33.9089653438 27.5,33.4759526419 27.25,33.04293994 28,32.6099272381 28,31.7439018343 27.5,31.7439018343 27.25,31.3108891325" fill="#f7d488" stroke="#222222" stroke-width="0.02" />
<polygon points="29.5,28.2798002192 30.25,28.7128129211 30.5,28.2798002192 30,27.4137748154 29.5,27.4137748154 29.5,26.5477494116 28.75,26.1147367097 28.5,26.5477494116 28.75,26.9807621135 28,27.4137748154 28,28.2798002192 28.5,28.2798002192 28.75,28.7128129211" fill="#f7d488" stroke="#222222" stroke-width="0.02" />
<polygon points="29.5,30.0118510268 29.5,30.8778764306 30,30.8778764306 30.5,30.0118510268 30.25,29.5788383249 31,29.145825623 31,28.2798002192 30.5,28.2798002192 30.25,28.7128129211 29.5,28.2798002192 28.75,28.7128129211 29,29.145825623 28.75,29.5788383249" fill="#f7d488" stroke="#222222" stroke-width="0.02" />
<polygon points="26.5,14.4233937587 26.5,13.5573683549 26,13.5573683549 25.5,14.4233937587 25.75,14.8564064606 25,15.2894191624 25,16.1554445662 25.5,16.1554445662 25.75,15.7224318643 26.5,16.1554445662 27.25,15.7224318643 27,15.2894191624 27.25,14.8564064606" fill="#f7d488" stroke="#222222" stroke-width="0.02" />
<polygon points="28,13.5573683549 28.75,13.124355653 28.5,12.6913429511 27.5,12.6913429511 27.25,13.124355653 26.5,12.6913429511 25.75,13.124355653 26,13.5573683549 26.5,13.5573683549 26.5,14.4233937587 27.25,14.8564064606 27.5,14.4233937587 28,14.4233937587" fill="#f7d488" stroke="#222222" stroke-width="0.02" />
<polygon points="28,15.2894191624 28,14.4233937587 27.5,14.4233937587 27,15.2894191624 27.25,15.7224318643 26.5,16.1554445662 26.5,17.02146997 27,17.02146997 27.25,16.5884572681 28,17.02146997 28.75,16.5884572681 28.5,16.1554445662 28.75,15.7224318643" fill="#f7d488" stroke="#222222" stroke-width="0.02" />
<polygon points="31,15.2894191624 31,14.4233937587 30.5,14.4233937587 30,15.2894191624 30.25,15.7224318643 29.5,16.1554445662 29.5,17.02146997 30,17.02146997 30.25,16.5884572681 31,17.02146997 31.75,16.5884572681 31.5,16.1554445662 31.75,15.7224318643" fill="#f7d488" stroke="#222222" stroke-width="0.02" />
<polygon points="29.5,14.4233937587 30.25,14.8564064606 30.5,14.4233937587 30,13.5573683549 29.5,13.5573683549 29.5,12.6913429511 28.75,12.2583302492 28.5,12.6913429511 28.75,13.124355653 28,13.5573683549 28,14.4233937587 28.5,14.4233937587 28.75,14.8564064606" fill="#f7d488" stroke="#222222" stroke-width="0.02" />
<polygon points="29.5,16.1554445662 29.5,17.02146997 29,17.02146997 28.5,16.1554445662 28.75,15.7224318643 28,15.2894191624 28,14.4233937587 28.5,14.4233937587 28.75,14.8564064606 29.5,14.4233937587 30.25,14.8564064606 30,15.2894191624 30.25,15.7224318643" fill="#f7d488" stroke="#222222" stroke-width="0.02" />
<polygon points="29.5,17.8874953738 28.75,18.3205080757 29,18.7535207776 30,18.7535207776 30.25,18.3205080757 31,18.7535207776 31.75,18.3205080757 31.5,17.8874953738 31,17.8874953738 31,17.02146997 30.25,16.5884572681 30,17.02146997 29.5,17.02146997" fill="#f7d488" stroke="#222222" stroke-width="0.02" />
<polygon points="28,17.02146997 27.25,16.5884572681 27,17.02146997 27.5,17.8874953738 28,17.8874953738 28,18.7535207776 28.75,19.1865334795 29,18.7535207776 28.75,18.3205080757 29.5,17.8874953738 29.5,17.02146997 29,17.02146997 28.75,16.5884572681" fill="#f7d488" stroke="#222222" stroke-width="0.02" />
<polygon points="29.5,21.3515969889 28.75,20.918584287 28.5,21.3515969889 29,22.2176223927 29.5,22.2176223927 29.5,23.0836477965 30.25,23.5166604984 30.5,23.0836477965 30.25,22.6506350946 31,22.2176223927 31,21.3515969889 30.5,21.3515969889 30.25,20.918584287" fill="#f7d488" stroke="#222222" stroke-width="0.02" />
<polygon points="31,18.7535207776 30.25,18.3205080757 30,18.7535207776 30.5,19.6195461814 31,19.6195461814 31,20.4855715851 31.75,20.918584287 32,20.4855715851 31.75,20.0525588833 32.5,19.6195461814 32.5,18.7535207776 32,18.7535207776 31.75,18.3205080757" fill="#f7d488" stroke="#222222" stroke-width="0.02" />
<polygon points="29.5,19.6195461814 30.25,19.1865334795 30,18.7535207776 29,18.7535207776 28.75,19.1865334795 28,18.7535207776 27.25,19.1865334795 27.5,19.6195461814 28,19.6195461814 28,20.4855715851 28.75,20.918584287 29,20.4855715851 29.5,20.4855715851" fill="#f7d488" stroke="#222222" stroke-width="0.02" />
<polygon points="31,20.4855715851 31.75,20.918584287 31.5,21.3515969889 30.5,21.3515969889 30.25,20.918584287 29.5,21.3515969889 28.75,20.918584287 29,20.4855715851 29.5,20.4855715851 29.5,19.6195461814 30.25,19.1865334795 30.5,19.6195461814 31,19.6195461814" fill="#f7d488" stroke="#222222" stroke-width="0.02" />
<polygon points="32.5,21.3515969889 32.5,22.2176223927 33,22.2176223927 33.5,21.3515969889 33.25,20.918584287 34,20.4855715851 34,19.6195461814 33.5,19.6195461814 33.25,20.0525588833 32.5,19.6195461814 31.75,20.0525588833 32,20.4855715851 31.75,20.918584287" fill="#f7d488" stroke="#222222" stroke-width="0.02" />
<polygon points="31,22.2176223927 30.25,22.6506350946 30.5,23.0836477965 31.5,23.0836477965 31.75,22.6506350946 32.5,23.0836477965 33.25,22.6506350946 33,22.2176223927 32.5,22.2176223927 32.5,21.3515969889 31.75,20.918584287 31.5,21.3515969889 31,21.3515969889" fill="#f7d488" stroke="#222222" stroke-width="0.02" />
<polygon points="29.5,10.9592921435 29.5,11.8253175473 30,11.8253175473 30.5,10.9592921435 30.25,10.5262794416 31,10.0932667397 31,9.22724133595 30.5,9.22724133595 30.25,9.66025403784 29.5,9.22724133595 28.75,9.66025403784 29,10.0932667397 28.75,10.5262794416" fill="#f7d488" stroke="#222222" stroke-width="0.02" />
<polygon points="28,11.8253175473 27.25,12.2583302492 27.5,12.6913429511 28.5,12.6913429511 28.75,12.2583302492 29.5,12.6913429511 30.25,12.2583302492 30,11.8253175473 29.5,11.8253175473 29.5,10.9592921435 28.75,10.5262794416 28.5,10.9592921435 28,10.9592921435" fill="#f7d488" stroke="#222222" stroke-width="0.02" />
<polygon points="28,10.0932667397 28,10.9592921435 28.5,10.9592921435 29,10.0932667397 28.75,9.66025403784 29.5,9.22724133595 29.5,8.36121593217 29,8.36121593217 28.75,8.79422863406 28,8.36121593217 27.25,8.79422863406 27.5,9.22724133595 27.25,9.66025403784" fill="#f7d488" stroke="#222222" stroke-width="0.02" />
<polygon points="25,10.0932667397 25,10.9592921435 25.5,10.9592921435 26,10.0932667397 25.75,9.66025403784 26.5,9.22724133595 26.5,8.36121593217 26,8.36121593217 25.75,8.79422863406 25,8.36121593217 24.25,8.79422863406 24.5,9.22724133595 24.25,9.66025403784" fill="#f7d488" stroke="#222222" stroke-width="0.02" />
<polygon points="26.5,10.9592921435 25.75,10.5262794416 25.5,10.9592921435 26,11.8253175473 26.5,11.8253175473 26.5,12.6913429511 27.25,13.124355653 27.5,12.6913429511 27.25,12.2583302492 28,11.8253175473 28,10.9592921435 27.5,10.9592921435 27.25,10.5262794416" fill="#f7d488" stroke="#222222" stroke-width="0.02" />
<polygon points="26.5,9.22724133595 26.5,8.36121593217 27,8.36121593217 27.5,9.22724133595 27.25,9.66025403784 28,10.0932667397 28,10.9592921435 27.5,10.9592921435 27.25,10.5262794416 26.5,10.9592921435 25.75,10.5262794416 26,10.0932667397 25.75,9.66025403784" fill="#f7d488" stroke="#222222" stroke-width="0.02" />
<polygon points="26.5,7.49519052838 27.25,7.06217782649 27,6.6291651246 26,6.6291651246 25.75,7.06217782649 25,6.6291651246 24.25,7.06217782649 24.5,7.49519052838 25,7.49519052838 25,8.36121593217 25.75,8.79422863406 26,8.36121593217 26.5,8.36121593217" fill="#f7d488" stroke="#222222" stroke-width="0.02" />
<polygon points="28,8.36121593217 28.75,8.79422863406 29,8.36121593217 28.5,7.49519052838 28,7.49519052838 28,6.6291651246 27.25,6.19615242271 27,6.6291651246 27.25,7.06217782649 26.5,7.49519052838 26.5,8.36121593217 27,8.36121593217 27.25,8.79422863406" fill="#f7d488" stroke="#222222" stroke-width="0.02" />
<polygon points="26.5,4.03108891325 27.25,4.46410161514 27.5,4.03108891325 27,3.16506350946 26.5,3.16506350946 26.5,2.29903810568 25.75,1.86602540378 25.5,2.29903810568 25.75,2.73205080757 25,3.16506350946 25,4.03108891325 25.5,4.03108891325 25.75,4.46410161514" fill="#f7d488" stroke="#222222" stroke-width="0.02" />
<polygon points="25,6.6291651246 25.75,7.06217782649 26,6.6291651246 25.5,5.76313972081 25,5.76313972081 25,4.89711431703 24.25,4.46410161514 24,4.89711431703 24.25,5.33012701892 23.5,5.76313972081 23.5,6.6291651246 24,6.6291651246 24.25,7.06217782649" fill="#f7d488" stroke="#222222" stroke-width="0.02" />
<polygon points="26.5,5.76313972081 25.75,6.19615242271 26,6.6291651246 27,6.6291651246 27.25,6.19615242271 28,6.6291651246 28.75,6.19615242271 28.5,5.76313972081 28,5.76313972081 28,4.89711431703 27.25,4.46410161514 27,4.89711431703 26.5,4.89711431703" fill="#f7d488" stroke="#222222" stroke-width="0.02" />
<polygon points="25,4.89711431703 24.25,4.46410161514 24.5,4.03108891325 25.5,4.03108891325 25.75,4.46410161514 26.5,4.03108891325 27.25,4.46410161514 27,4.89711431703 26.5,4.89711431703 26.5,5.76313972081 25.75,6.19615242271 25.5,5.76313972081 25,5.76313972081" fill="#f7d488" stroke="#222222" stroke-width="0.02" />
<polygon points="28,3.16506350946 28.75,3.59807621135 29,3.16506350946 28.5,2.29903810568 28,2.29903810568 28,1.43301270189 27.25,1 27,1.43301270189 27.25,1.86602540378 26.5,2.29903810568 26.5,3.16506350946 27,3.16506350946 27.25,3.59807621135" fill="#f7d488" stroke="#222222" stroke-width="0.02" />
<polygon points="28,4.89711431703 28,5.76313972081 28.5,5.76313972081 29,4.89711431703 28.75,4.46410161514 29.5,4.03108891325 29.5,3.16506350946 29,3.16506350946 28.75,3.59807621135 28,3.16506350946 27.25,3.59807621135 27.5,4.03108891325 27.25,4.46410161514" fill="#f7d488" stroke="#222222" stroke-width="0.02" />
<polygon points="23.5,4.03108891325 23.5,3.16506350946 23,3.16506350946 22.5,4.03108891325 22.75,4.46410161514 22,4.89711431703 22,5.76313972081 22.5,5.76313972081 22.75,5.33012701892 23.5,5.76313972081 24.25,5.33012701892 24,4.89711431703 24.25,4.46410161514" fill="#f7d488" stroke="#222222" stroke-width="0.02" />
<polygon points="25,3.16506350946 25.75,2.73205080757 25.5,2.29903810568 24.5,2.29903810568 24.25,2.73205080757 23.5,2.29903810568 22.75,2.73205080757 23,3.16506350946 23.5,3.16506350946 23.5,4.03108891325 24.25,4.46410161514 24.5,4.03108891325 25,4.03108891325" fill="#f7d488" stroke="#222222" stroke-width="0.02" />
</svg>
