<svg xmlns="http://www.w3.org/2000/svg" width="900" height="700" viewBox="0 0 192.211303259 202">
<title>Penrose level 4</title>
<polygon points="168.75990443,101 168.75990443,86.410196625 177.335575688,89.196601125" fill="#d8e7ff" stroke="#224c8d" stroke-width="0.08" />
<polygon points="168.75990443,86.410196625 168.75990443,101 154.884176859,81.9016994375" fill="#d8e7ff" stroke="#224c8d" stroke-width="0.08" />
<polygon points="177.335575688,74.60679775 191.211303259,70.0983005625 177.335575688,89.196601125" fill="#d8e7ff" stroke="#224c8d" stroke-width="0.08" />
<polygon points="168.75990443,86.410196625 177.335575688,74.60679775 154.884176859,81.9016994375" fill="#d8e7ff" stroke="#224c8d" stroke-width="0.08" />
<polygon points="177.335575688,74.60679775 168.75990443,86.410196625 177.335575688,89.196601125" fill="#d8e7ff" stroke="#224c8d" stroke-width="0.08" />
<polygon points="177.335575688,112.803398875 168.75990443,101 191.211303259,108.294901688" fill="#d8e7ff" stroke="#224c8d" stroke-width="0.08" />
<polygon points="191.211303259,117.311896062 177.335575688,112.803398875 191.211303259,131.901699437" fill="#d8e7ff" stroke="#224c8d" stroke-width="0.08" />
<polygon points="177.335575688,112.803398875 191.211303259,117.311896062 191.211303259,108.294901688" fill="#d8e7ff" stroke="#224c8d" stroke-width="0.08" />
<polygon points="191.211303259,84.6881039375 191.211303259,70.0983005625 177.335575688,89.196601125" fill="#d8e7ff" stroke="#224c8d" stroke-width="0.08" />
<polygon points="182.635632001,96.4915028125 191.211303259,84.6881039375 191.211303259,108.294901688" fill="#d8e7ff" stroke="#224c8d" stroke-width="0.08" />
<polygon points="191.211303259,84.6881039375 182.635632001,96.4915028125 177.335575688,89.196601125" fill="#d8e7ff" stroke="#224c8d" stroke-width="0.08" />
<polygon points="168.75990443,101 182.635632001,96.4915028125 177.335575688,89.196601125" fill="#d8e7ff" stroke="#224c8d" stroke-width="0.08" />
<polygon points="182.635632001,96.4915028125 168.75990443,101 191.211303259,108.294901688" fill="#d8e7ff" stroke="#224c8d" stroke-width="0.08" />
<polygon points="141.008449287,101 132.43277803,112.803398875 132.43277803,89.196601125" fill="#d8e7ff" stroke="#224c8d" stroke-width="0.08" />
<polygon points="141.008449287,86.410196625 141.008449287,101 154.884176859,81.9016994375" fill="#d8e7ff" stroke="#224c8d" stroke-width="0.08" />
<polygon points="141.008449287,101 141.008449287,86.410196625 132.43277803,89.196601125" fill="#d8e7ff" stroke="#224c8d" stroke-width="0.08" />
<polygon points="109.981379201,96.4915028125 96.1056516295,101 118.557050458,108.294901688" fill="#d8e7ff" stroke="#224c8d" stroke-width="0.08" />
<polygon points="123.857106772,101 109.981379201,96.4915028125 132.43277803,89.196601125" fill="#d8e7ff" stroke="#224c8d" stroke-width="0.08" />
<polygon points="109.981379201,96.4915028125 123.857106772,101 118.557050458,108.294901688" fill="#d8e7ff" stroke="#224c8d" stroke-width="0.08" />
<polygon points="132.43277803,112.803398875 123.857106772,101 118.557050458,108.294901688" fill="#d8e7ff" stroke="#224c8d" stroke-width="0.08" />
<polygon points="123.857106772,101 132.43277803,112.803398875 132.43277803,89.196601125" fill="#d8e7ff" stroke="#224c8d" stroke-width="0.08" />
<polygon points="177.335575688,112.803398875 168.75990443,101 168.75990443,124.60679775" fill="#d8e7ff" stroke="#224c8d" stroke-width="0.08" />
<polygon points="177.335575688,127.39320225 177.335575688,112.803398875 191.211303259,131.901699437" fill="#d8e7ff" stroke="#224c8d" stroke-width="0.08" />
<polygon points="177.335575688,112.803398875 177.335575688,127.39320225 168.75990443,124.60679775" fill="#d8e7ff" stroke="#224c8d" stroke-width="0.08" />
<polygon points="146.308505601,117.311896062 132.43277803,112.803398875 154.884176859,105.508497187" fill="#d8e7ff" stroke="#224c8d" stroke-width="0.08" />
<polygon points="160.184233172,112.803398875 146.308505601,117.311896062 168.75990443,124.60679775" fill="#d8e7ff" stroke="#224c8d" stroke-width="0.08" />
<polygon points="146.308505601,117.311896062 160.184233172,112.803398875 154.884176859,105.508497187" fill="#d8e7ff" stroke="#224c8d" stroke-width="0.08" />
<polygon points="168.75990443,101 160.184233172,112.803398875 154.884176859,105.508497187" fill="#d8e7ff" stroke="#224c8d" stroke-width="0.08" />
<polygon points="160.184233172,112.803398875 168.75990443,101 168.75990443,124.60679775" fill="#d8e7ff" stroke="#224c8d" stroke-width="0.08" />
<polygon points="168.75990443,101 154.884176859,96.4915028125 154.884176859,105.508497187" fill="#d8e7ff" stroke="#224c8d" stroke-width="0.08" />
<polygon points="154.884176859,96.4915028125 168.75990443,101 154.884176859,81.9016994375" fill="#d8e7ff" stroke="#224c8d" stroke-width="0.08" />
<polygon points="141.008449287,101 132.43277803,112.803398875 154.884176859,105.508497187" fill="#d8e7ff" stroke="#224c8d" stroke-width="0.08" />
<polygon points="154.884176859,96.4915028125 141.008449287,101 154.884176859,81.9016994375" fill="#d8e7ff" stroke="#224c8d" stroke-width="0.08" />
<polygon points="141.008449287,101 154.884176859,96.4915028125 154.884176859,105.508497187" fill="#d8e7ff" stroke="#224c8d" stroke-width="0.08" />
<polygon points="154.884176859,58.2949016875 163.459848116,70.0983005625 168.75990443,62.803398875" fill="#d8e7ff" stroke="#224c8d" stroke-width="0.08" />
<polygon points="163.459848116,70.0983005625 154.884176859,58.2949016875 154.884176859,81.9016994375" fill="#d8e7ff" stroke="#224c8d" stroke-width="0.08" />
<polygon points="177.335575688,74.60679775 191.211303259,70.0983005625 168.75990443,62.803398875" fill="#d8e7ff" stroke="#224c8d" stroke-width="0.08" />
<polygon points="163.459848116,70.0983005625 177.335575688,74.60679775 154.884176859,81.9016994375" fill="#d8e7ff" stroke="#224c8d" stroke-width="0.08" />
<polygon points="177.335575688,74.60679775 163.459848116,70.0983005625 168.75990443,62.803398875" fill="#d8e7ff" stroke="#224c8d" stroke-width="0.08" />
<polygon points="154.884176859,43.7050983125 154.884176859,58.2949016875 168.75990443,39.196601125" fill="#d8e7ff" stroke="#224c8d" stroke-width="0.08" />
<polygon points="163.459848116,31.9016994375 154.884176859,43.7050983125 154.884176859,20.0983005625" fill="#d8e7ff" stroke="#224c8d" stroke-width="0.08" />
<polygon points="154.884176859,43.7050983125 163.459848116,31.9016994375 168.75990443,39.196601125" fill="#d8e7ff" stroke="#224c8d" stroke-width="0.08" />
<polygon points="182.635632001,58.2949016875 191.211303259,70.0983005625 168.75990443,62.803398875" fill="#d8e7ff" stroke="#224c8d" stroke-width="0.08" />
<polygon points="168.75990443,53.7864045 182.635632001,58.2949016875 168.75990443,39.196601125" fill="#d8e7ff" stroke="#224c8d" stroke-width="0.08" />
<polygon points="182.635632001,58.2949016875 168.75990443,53.7864045 168.75990443,62.803398875" fill="#d8e7ff" stroke="#224c8d" stroke-width="0.08" />
<polygon points="154.884176859,58.2949016875 168.75990443,53.7864045 168.75990443,62.803398875" fill="#d8e7ff" stroke="#224c8d" stroke-width="0.08" />
<polygon points="168.75990443,53.7864045 154.884176859,58.2949016875 168.75990443,39.196601125" fill="#d8e7ff" stroke="#224c8d" stroke-width="0.08" />
<polygon points="132.43277803,74.60679775 118.557050458,70.0983005625 132.43277803,89.196601125" fill="#d8e7ff" stroke="#224c8d" stroke-width="0.08" />
<polygon points="141.008449287,86.410196625 132.43277803,74.60679775 154.884176859,81.9016994375" fill="#d8e7ff" stroke="#224c8d" stroke-width="0.08" />
<polygon points="132.43277803,74.60679775 141.008449287,86.410196625 132.43277803,89.196601125" fill="#d8e7ff" stroke="#224c8d" stroke-width="0.08" />
<polygon points="109.981379201,96.4915028125 96.1056516295,101 109.981379201,81.9016994375" fill="#d8e7ff" stroke="#224c8d" stroke-width="0.08" />
<polygon points="118.557050458,84.6881039375 109.981379201,96.4915028125 132.43277803,89.196601125" fill="#d8e7ff" stroke="#224c8d" stroke-width="0.08" />
<polygon points="109.981379201,96.4915028125 118.557050458,84.6881039375 109.981379201,81.9016994375" fill="#d8e7ff" stroke="#224c8d" stroke-width="0.08" />
<polygon points="118.557050458,70.0983005625 118.557050458,84.6881039375 109.981379201,81.9016994375" fill="#d8e7ff" stroke="#224c8d" stroke-width="0.08" />
<polygon points="118.557050458,84.6881039375 118.557050458,70.0983005625 132.43277803,89.196601125" fill="#d8e7ff" stroke="#224c8d" stroke-width="0.08" />
<polygon points="154.884176859,43.7050983125 154.884176859,58.2949016875 141.008449287,39.196601125" fill="#d8e7ff" stroke="#224c8d" stroke-width="0.08" />
<polygon points="146.308505601,31.9016994375 154.884176859,43.7050983125 154.884176859,20.0983005625" fill="#d8e7ff" stroke="#224c8d" stroke-width="0.08" />
<polygon points="154.884176859,43.7050983125 146.308505601,31.9016994375 141.008449287,39.196601125" fill="#d8e7ff" stroke="#224c8d" stroke-width="0.08" />
<polygon points="127.132721716,58.2949016875 118.557050458,70.0983005625 141.008449287,62.803398875" fill="#d8e7ff" stroke="#224c8d" stroke-width="0.08" />
<polygon points="141.008449287,53.7864045 127.132721716,58.2949016875 141.008449287,39.196601125" fill="#d8e7ff" stroke="#224c8d" stroke-width="0.08" />
<polygon points="127.132721716,58.2949016875 141.008449287,53.7864045 141.008449287,62.803398875" fill="#d8e7ff" stroke="#224c8d" stroke-width="0.08" />
<polygon points="154.884176859,58.2949016875 141.008449287,53.7864045 141.008449287,62.803398875" fill="#d8e7ff" stroke="#224c8d" stroke-width="0.08" />
<polygon points="141.008449287,53.7864045 154.884176859,58.2949016875 141.008449287,39.196601125" fill="#d8e7ff" stroke="#224c8d" stroke-width="0.08" />
<polygon points="154.884176859,58.2949016875 146.308505601,70.0983005625 141.008449287,62.803398875" fill="#d8e7ff" stroke="#224c8d" stroke-width="0.08" />
<polygon points="146.308505601,70.0983005625 154.884176859,58.2949016875 154.884176859,81.9016994375" fill="#d8e7ff" stroke="#224c8d" stroke-width="0.08" />
<polygon points="132.43277803,74.60679775 118.557050458,70.0983005625 141.008449287,62.803398875" fill="#d8e7ff" stroke="#224c8d" stroke-width="0.08" />
<polygon points="146.308505601,70.0983005625 132.43277803,74.60679775 154.884176859,81.9016994375" fill="#d8e7ff" stroke="#224c8d" stroke-width="0.08" />
<polygon points="132.43277803,74.60679775 146.308505601,70.0983005625 141.008449287,62.803398875" fill="#d8e7ff" stroke="#224c8d" stroke-width="0.08" />
<polygon points="118.557050458,31.9016994375 104.681322887,27.39320225 109.981379201,20.0983005625" fill="#d8e7ff" stroke="#224c8d" stroke-width="0.08" />
<polygon points="104.681322887,27.39320225 118.557050458,31.9016994375 96.1056516295,39.196601125" fill="#d8e7ff" stroke="#224c8d" stroke-width="0.08" />
<polygon points="96.1056516295,15.589803375 96.1056516295,1 109.981379201,20.0983005625" fill="#d8e7ff" stroke="#224c8d" stroke-width="0.08" />
<polygon points="104.681322887,27.39320225 96.1056516295,15.589803375 96.1056516295,39.196601125" fill="#d8e7ff" stroke="#224c8d" stroke-width="0.08" />
<polygon points="96.1056516295,15.589803375 104.681322887,27.39320225 109.981379201,20.0983005625" fill="#d8e7ff" stroke="#224c8d" stroke-width="0.08" />
<polygon points="132.43277803,27.39320225 118.557050458,31.9016994375 132.43277803,12.803398875" fill="#d8e7ff" stroke="#224c8d" stroke-width="0.08" />
<polygon points="141.008449287,15.589803375 132.43277803,27.39320225 154.884176859,20.0983005625" fill="#d8e7ff" stroke="#224c8d" stroke-width="0.08" />
<polygon points="132.43277803,27.39320225 141.008449287,15.589803375 132.43277803,12.803398875" fill="#d8e7ff" stroke="#224c8d" stroke-width="0.08" />
<polygon points="109.981379201,5.50849718747 96.1056516295,1 109.981379201,20.0983005625" fill="#d8e7ff" stroke="#224c8d" stroke-width="0.08" />
<polygon points="118.557050458,17.3118960625 109.981379201,5.50849718747 132.43277803,12.803398875" fill="#d8e7ff" stroke="#224c8d" stroke-width="0.08" />
<polygon points="109.981379201,5.50849718747 118.557050458,17.3118960625 109.981379201,20.0983005625" fill="#d8e7ff" stroke="#224c8d" stroke-width="0.08" />
<polygon points="118.557050458,31.9016994375 118.557050458,17.3118960625 109.981379201,20.0983005625" fill="#d8e7ff" stroke="#224c8d" stroke-width="0.08" />
<polygon points="118.557050458,17.3118960625 118.557050458,31.9016994375 132.43277803,12.803398875" fill="#d8e7ff" stroke="#224c8d" stroke-width="0.08" />
<polygon points="109.981379201,58.2949016875 118.557050458,70.0983005625 96.1056516295,62.803398875" fill="#d8e7ff" stroke="#224c8d" stroke-width="0.08" />
<polygon points="96.1056516295,53.7864045 109.981379201,58.2949016875 96.1056516295,39.196601125" fill="#d8e7ff" stroke="#224c8d" stroke-width="0.08" />
<polygon points="109.981379201,58.2949016875 96.1056516295,53.7864045 96.1056516295,62.803398875" fill="#d8e7ff" stroke="#224c8d" stroke-width="0.08" />
<polygon points="96.1056516295,86.410196625 96.1056516295,101 109.981379201,81.9016994375" fill="#d8e7ff" stroke="#224c8d" stroke-width="0.08" />
<polygon points="104.681322887,74.60679775 96.1056516295,86.410196625 96.1056516295,62.803398875" fill="#d8e7ff" stroke="#224c8d" stroke-width="0.08" />
<polygon points="96.1056516295,86.410196625 104.681322887,74.60679775 109.981379201,81.9016994375" fill="#d8e7ff" stroke="#224c8d" stroke-width="0.08" />
<polygon points="118.557050458,70.0983005625 104.681322887,74.60679775 109.981379201,81.9016994375" fill="#d8e7ff" stroke="#224c8d" stroke-width="0.08" />
<polygon points="104.681322887,74.60679775 118.557050458,70.0983005625 96.1056516295,62.803398875" fill="#d8e7ff" stroke="#224c8d" stroke-width="0.08" />
<polygon points="132.43277803,27.39320225 118.557050458,31.9016994375 141.008449287,39.196601125" fill="#d8e7ff" stroke="#224c8d" stroke-width="0.08" />
<polygon points="146.308505601,31.9016994375 132.43277803,27.39320225 154.884176859,20.0983005625" fill="#d8e7ff" stroke="#224c8d" stroke-width="0.08" />
<polygon points="132.43277803,27.39320225 146.308505601,31.9016994375 141.008449287,39.196601125" fill="#d8e7ff" stroke="#224c8d" stroke-width="0.08" />
<polygon points="127.132721716,58.2949016875 118.557050458,70.0983005625 118.557050458,46.4915028125" fill="#d8e7ff" stroke="#224c8d" stroke-width="0.08" />
<polygon points="127.132721716,43.7050983125 127.132721716,58.2949016875 141.008449287,39.196601125" fill="#d8e7ff" stroke="#224c8d" stroke-width="0.08" />
<polygon points="127.132721716,58.2949016875 127.132721716,43.7050983125 118.557050458,46.4915028125" fill="#d8e7ff" stroke="#224c8d" stroke-width="0.08" />
<polygon points="118.557050458,31.9016994375 127.132721716,43.7050983125 118.557050458,46.4915028125" fill="#d8e7ff" stroke="#224c8d" stroke-width="0.08" />
<polygon points="127.132721716,43.7050983125 118.557050458,31.9016994375 141.008449287,39.196601125" fill="#d8e7ff" stroke="#224c8d" stroke-width="0.08" />
<polygon points="118.557050458,31.9016994375 109.981379201,43.7050983125 118.557050458,46.4915028125" fill="#d8e7ff" stroke="#224c8d" stroke-width="0.08" />
<polygon points="109.981379201,43.7050983125 118.557050458,31.9016994375 96.1056516295,39.196601125" fill="#d8e7ff" stroke="#224c8d" stroke-width="0.08" />
<polygon points="109.981379201,58.2949016875 118.557050458,70.0983005625 118.557050458,46.4915028125" fill="#d8e7ff" stroke="#224c8d" stroke-width="0.08" />
<polygon points="109.981379201,43.7050983125 109.981379201,58.2949016875 96.1056516295,39.196601125" fill="#d8e7ff" stroke="#224c8d" stroke-width="0.08" />
<polygon points="109.981379201,58.2949016875 109.981379201,43.7050983125 118.557050458,46.4915028125" fill="#d8e7ff" stroke="#224c8d" stroke-width="0.08" />
<polygon points="73.6542528005,31.9016994375 87.5299803718,27.39320225 82.2299240582,20.0983005625" fill="#d8e7ff" stroke="#224c8d" stroke-width="0.08" />
<polygon points="87.5299803718,27.39320225 73.6542528005,31.9016994375 96.1056516295,39.196601125" fill="#d8e7ff" stroke="#224c8d" stroke-width="0.08" />
<polygon points="96.1056516295,15.589803375 96.1056516295,1 82.2299240582,20.0983005625" fill="#d8e7ff" stroke="#224c8d" stroke-width="0.08" />
<polygon points="87.5299803718,27.39320225 96.1056516295,15.589803375 96.1056516295,39.196601125" fill="#d8e7ff" stroke="#224c8d" stroke-width="0.08" />
<polygon points="96.1056516295,15.589803375 87.5299803718,27.39320225 82.2299240582,20.0983005625" fill="#d8e7ff" stroke="#224c8d" stroke-width="0.08" />
<polygon points="59.7785252292,27.39320225 73.6542528005,31.9016994375 59.7785252292,12.803398875" fill="#d8e7ff" stroke="#224c8d" stroke-width="0.08" />
<polygon points="51.2028539716,15.589803375 59.7785252292,27.39320225 37.3271264003,20.0983005625" fill="#d8e7ff" stroke="#224c8d" stroke-width="0.08" />
<polygon points="59.7785252292,27.39320225 51.2028539716,15.589803375 59.7785252292,12.803398875" fill="#d8e7ff" stroke="#224c8d" stroke-width="0.08" />
<polygon points="82.2299240582,5.50849718747 96.1056516295,1 82.2299240582,20.0983005625" fill="#d8e7ff" stroke="#224c8d" stroke-width="0.08" />
<polygon points="73.6542528005,17.3118960625 82.2299240582,5.50849718747 59.7785252292,12.803398875" fill="#d8e7ff" stroke="#224c8d" stroke-width="0.08" />
<polygon points="82.2299240582,5.50849718747 73.6542528005,17.3118960625 82.2299240582,20.0983005625" fill="#d8e7ff" stroke="#224c8d" stroke-width="0.08" />
<polygon points="73.6542528005,31.9016994375 73.6542528005,17.3118960625 82.2299240582,20.0983005625" fill="#d8e7ff" stroke="#224c8d" stroke-width="0.08" />
<polygon points="73.6542528005,17.3118960625 73.6542528005,31.9016994375 59.7785252292,12.803398875" fill="#d8e7ff" stroke="#224c8d" stroke-width="0.08" />
<polygon points="82.2299240582,58.2949016875 73.6542528005,70.0983005625 96.1056516295,62.803398875" fill="#d8e7ff" stroke="#224c8d" stroke-width="0.08" />
<polygon points="96.1056516295,53.7864045 82.2299240582,58.2949016875 96.1056516295,39.196601125" fill="#d8e7ff" stroke="#224c8d" stroke-width="0.08" />
<polygon points="82.2299240582,58.2949016875 96.1056516295,53.7864045 96.1056516295,62.803398875" fill="#d8e7ff" stroke="#224c8d" stroke-width="0.08" />
<polygon points="96.1056516295,86.410196625 96.1056516295,101 82.2299240582,81.9016994375" fill="#d8e7ff" stroke="#224c8d" stroke-width="0.08" />
<polygon points="87.5299803718,74.60679775 96.1056516295,86.410196625 96.1056516295,62.803398875" fill="#d8e7ff" stroke="#224c8d" stroke-width="0.08" />
<polygon points="96.1056516295,86.410196625 87.5299803718,74.60679775 82.2299240582,81.9016994375" fill="#d8e7ff" stroke="#224c8d" stroke-width="0.08" />
<polygon points="73.6542528005,70.0983005625 87.5299803718,74.60679775 82.2299240582,81.9016994375" fill="#d8e7ff" stroke="#224c8d" stroke-width="0.08" />
<polygon points="87.5299803718,74.60679775 73.6542528005,70.0983005625 96.1056516295,62.803398875" fill="#d8e7ff" stroke="#224c8d" stroke-width="0.08" />
<polygon points="59.7785252292,27.39320225 73.6542528005,31.9016994375 51.2028539716,39.196601125" fill="#d8e7ff" stroke="#224c8d" stroke-width="0.08" />
<polygon points="45.902797658,31.9016994375 59.7785252292,27.39320225 37.3271264003,20.0983005625" fill="#d8e7ff" stroke="#224c8d" stroke-width="0.08" />
<polygon points="59.7785252292,27.39320225 45.902797658,31.9016994375 51.2028539716,39.196601125" fill="#d8e7ff" stroke="#224c8d" stroke-width="0.08" />
<polygon points="65.0785815428,58.2949016875 73.6542528005,70.0983005625 73.6542528005,46.4915028125" fill="#d8e7ff" stroke="#224c8d" stroke-width="0.08" />
<polygon points="65.0785815428,43.7050983125 65.0785815428,58.2949016875 51.2028539716,39.196601125" fill="#d8e7ff" stroke="#224c8d" stroke-width="0.08" />
<polygon points="65.0785815428,58.2949016875 65.0785815428,43.7050983125 73.6542528005,46.4915028125" fill="#d8e7ff" stroke="#224c8d" stroke-width="0.08" />
<polygon points="73.6542528005,31.9016994375 65.0785815428,43.7050983125 73.6542528005,46.4915028125" fill="#d8e7ff" stroke="#224c8d" stroke-width="0.08" />
<polygon points="65.0785815428,43.7050983125 73.6542528005,31.9016994375 51.2028539716,39.196601125" fill="#d8e7ff" stroke="#224c8d" stroke-width="0.08" />
<polygon points="73.6542528005,31.9016994375 82.2299240582,43.7050983125 73.6542528005,46.4915028125" fill="#d8e7ff" stroke="#224c8d" stroke-width="0.08" />
<polygon points="82.2299240582,43.7050983125 73.6542528005,31.9016994375 96.1056516295,39.196601125" fill="#d8e7ff" stroke="#224c8d" stroke-width="0.08" />
<polygon points="82.2299240582,58.2949016875 73.6542528005,70.0983005625 73.6542528005,46.4915028125" fill="#d8e7ff" stroke="#224c8d" stroke-width="0.08" />
<polygon points="82.2299240582,43.7050983125 82.2299240582,58.2949016875 96.1056516295,39.196601125" fill="#d8e7ff" stroke="#224c8d" stroke-width="0.08" />
<polygon points="82.2299240582,58.2949016875 82.2299240582,43.7050983125 73.6542528005,46.4915028125" fill="#d8e7ff" stroke="#224c8d" stroke-width="0.08" />
<polygon points="37.3271264003,58.2949016875 28.7514551426,70.0983005625 23.451398829,62.803398875" fill="#d8e7ff" stroke="#224c8d" stroke-width="0.08" />
<polygon points="28.7514551426,70.0983005625 37.3271264003,58.2949016875 37.3271264003,81.9016994375" fill="#d8e7ff" stroke="#224c8d" stroke-width="0.08" />
<polygon points="14.8757275713,74.60679775 1,70.0983005625 23.451398829,62.803398875" fill="#d8e7ff" stroke="#224c8d" stroke-width="0.08" />
<polygon points="28.7514551426,70.0983005625 14.8757275713,74.60679775 37.3271264003,81.9016994375" fill="#d8e7ff" stroke="#224c8d" stroke-width="0.08" />
<polygon points="14.8757275713,74.60679775 28.7514551426,70.0983005625 23.451398829,62.803398875" fill="#d8e7ff" stroke="#224c8d" stroke-width="0.08" />
<polygon points="37.3271264003,43.7050983125 37.3271264003,58.2949016875 23.451398829,39.196601125" fill="#d8e7ff" stroke="#224c8d" stroke-width="0.08" />
<polygon points="28.7514551426,31.9016994375 37.3271264003,43.7050983125 37.3271264003,20.0983005625" fill="#d8e7ff" stroke="#224c8d" stroke-width="0.08" />
<polygon points="37.3271264003,43.7050983125 28.7514551426,31.9016994375 23.451398829,39.196601125" fill="#d8e7ff" stroke="#224c8d" stroke-width="0.08" />
<polygon points="9.57567125769,58.2949016875 1,70.0983005625 23.451398829,62.803398875" fill="#d8e7ff" stroke="#224c8d" stroke-width="0.08" />
<polygon points="23.451398829,53.7864045 9.57567125769,58.2949016875 23.451398829,39.196601125" fill="#d8e7ff" stroke="#224c8d" stroke-width="0.08" />
<polygon points="9.57567125769,58.2949016875 23.451398829,53.7864045 23.451398829,62.803398875" fill="#d8e7ff" stroke="#224c8d" stroke-width="0.08" />
<polygon points="37.3271264003,58.2949016875 23.451398829,53.7864045 23.451398829,62.803398875" fill="#d8e7ff" stroke="#224c8d" stroke-width="0.08" />
<polygon points="23.451398829,53.7864045 37.3271264003,58.2949016875 23.451398829,39.196601125" fill="#d8e7ff" stroke="#224c8d" stroke-width="0.08" />
<polygon points="59.7785252292,74.60679775 73.6542528005,70.0983005625 59.7785252292,89.196601125" fill="#d8e7ff" stroke="#224c8d" stroke-width="0.08" />
<polygon points="51.2028539716,86.410196625 59.7785252292,74.60679775 37.3271264003,81.9016994375" fill="#d8e7ff" stroke="#224c8d" stroke-width="0.08" />
<polygon points="59.7785252292,74.60679775 51.2028539716,86.410196625 59.7785252292,89.196601125" fill="#d8e7ff" stroke="#224c8d" stroke-width="0.08" />
<polygon points="82.2299240582,96.4915028125 96.1056516295,101 82.2299240582,81.9016994375" fill="#d8e7ff" stroke="#224c8d" stroke-width="0.08" />
<polygon points="73.6542528005,84.6881039375 82.2299240582,96.4915028125 59.7785252292,89.196601125" fill="#d8e7ff" stroke="#224c8d" stroke-width="0.08" />
<polygon points="82.2299240582,96.4915028125 73.6542528005,84.6881039375 82.2299240582,81.9016994375" fill="#d8e7ff" stroke="#224c8d" stroke-width="0.08" />
<polygon points="73.6542528005,70.0983005625 73.6542528005,84.6881039375 82.2299240582,81.9016994375" fill="#d8e7ff" stroke="#224c8d" stroke-width="0.08" />
<polygon points="73.6542528005,84.6881039375 73.6542528005,70.0983005625 59.7785252292,89.196601125" fill="#d8e7ff" stroke="#224c8d" stroke-width="0.08" />
<polygon points="37.3271264003,43.7050983125 37.3271264003,58.2949016875 51.2028539716,39.196601125" fill="#d8e7ff" stroke="#224c8d" stroke-width="0.08" />
<polygon points="45.902797658,31.9016994375 37.3271264003,43.7050983125 37.3271264003,20.0983005625" fill="#d8e7ff" stroke="#224c8d" stroke-width="0.08" />
<polygon points="37.3271264003,43.7050983125 45.902797658,31.9016994375 51.2028539716,39.196601125" fill="#d8e7ff" stroke="#224c8d" stroke-width="0.08" />
<polygon points="65.0785815428,58.2949016875 73.6542528005,70.0983005625 51.2028539716,62.803398875" fill="#d8e7ff" stroke="#224c8d" stroke-width="0.08" />
<polygon points="51.2028539716,53.7864045 65.0785815428,58.2949016875 51.2028539716,39.196601125" fill="#d8e7ff" stroke="#224c8d" stroke-width="0.08" />
<polygon points="65.0785815428,58.2949016875 51.2028539716,53.7864045 51.2028539716,62.803398875" fill="#d8e7ff" stroke="#224c8d" stroke-width="0.08" />
<polygon points="37.3271264003,58.2949016875 51.2028539716,53.7864045 51.2028539716,62.803398875" fill="#d8e7ff" stroke="#224c8d" stroke-width="0.08" />
<polygon points="51.2028539716,53.7864045 37.3271264003,58.2949016875 51.2028539716,39.196601125" fill="#d8e7ff" stroke="#224c8d" stroke-width="0.08" />
<polygon points="37.3271264003,58.2949016875 45.902797658,70.0983005625 51.2028539716,62.803398875" fill="#d8e7ff" stroke="#224c8d" stroke-width="0.08" />
<polygon points="45.902797658,70.0983005625 37.3271264003,58.2949016875 37.3271264003,81.9016994375" fill="#d8e7ff" stroke="#224c8d" stroke-width="0.08" />
<polygon points="59.7785252292,74.60679775 73.6542528005,70.0983005625 51.2028539716,62.803398875" fill="#d8e7ff" stroke="#224c8d" stroke-width="0.08" />
<polygon points="45.902797658,70.0983005625 59.7785252292,74.60679775 37.3271264003,81.9016994375" fill="#d8e7ff" stroke="#224c8d" stroke-width="0.08" />
<polygon points="59.7785252292,74.60679775 45.902797658,70.0983005625 51.2028539716,62.803398875" fill="#d8e7ff" stroke="#224c8d" stroke-width="0.08" />
<polygon points="23.451398829,101 23.451398829,86.410196625 14.8757275713,89.196601125" fill="#d8e7ff" stroke="#224c8d" stroke-width="0.08" />
<polygon points="23.451398829,86.410196625 23.451398829,101 37.3271264003,81.9016994375" fill="#d8e7ff" stroke="#224c8d" stroke-width="0.08" />
<polygon points="14.8757275713,74.60679775 1,70.0983005625 14.8757275713,89.196601125" fill="#d8e7ff" stroke="#224c8d" stroke-width="0.08" />
<polygon points="23.451398829,86.410196625 14.8757275713,74.60679775 37.3271264003,81.9016994375" fill="#d8e7ff" stroke="#224c8d" stroke-width="0.08" />
<polygon points="14.8757275713,74.60679775 23.451398829,86.410196625 14.8757275713,89.196601125" fill="#d8e7ff" stroke="#224c8d" stroke-width="0.08" />
<polygon points="14.8757275713,112.803398875 23.451398829,101 1,108.294901688" fill="#d8e7ff" stroke="#224c8d" stroke-width="0.08" />
<polygon points="1,117.311896062 14.8757275713,112.803398875 1,131.901699437" fill="#d8e7ff" stroke="#224c8d" stroke-width="0.08" />
<polygon points="14.8757275713,112.803398875 1,117.311896062 1,108.294901688" fill="#d8e7ff" stroke="#224c8d" stroke-width="0.08" />
<polygon points="1,84.6881039375 1,70.0983005625 14.8757275713,89.196601125" fill="#d8e7ff" stroke="#224c8d" stroke-width="0.08" />
<polygon points="9.57567125769,96.4915028125 1,84.6881039375 1,108.294901688" fill="#d8e7ff" stroke="#224c8d" stroke-width="0.08" />
<polygon points="1,84.6881039375 9.57567125769,96.4915028125 14.8757275713,89.196601125" fill="#d8e7ff" stroke="#224c8d" stroke-width="0.08" />
<polygon points="23.451398829,101 9.57567125769,96.4915028125 14.8757275713,89.196601125" fill="#d8e7ff" stroke="#224c8d" stroke-width="0.08" />
<polygon points="9.57567125769,96.4915028125 23.451398829,101 1,108.294901688" fill="#d8e7ff" stroke="#224c8d" stroke-width="0.08" />
<polygon points="51.2028539716,101 59.7785252292,112.803398875 59.7785252292,89.196601125" fill="#d8e7ff" stroke="#224c8d" stroke-width="0.08" />
<polygon points="51.2028539716,86.410196625 51.2028539716,101 37.3271264003,81.9016994375" fill="#d8e7ff" stroke="#224c8d" stroke-width="0.08" />
<polygon points="51.2028539716,101 51.2028539716,86.410196625 59.7785252292,89.196601125" fill="#d8e7ff" stroke="#224c8d" stroke-width="0.08" />
<polygon points="82.2299240582,96.4915028125 96.1056516295,101 73.6542528005,108.294901688" fill="#d8e7ff" stroke="#224c8d" stroke-width="0.08" />
<polygon points="68.3541964869,101 82.2299240582,96.4915028125 59.7785252292,89.196601125" fill="#d8e7ff" stroke="#224c8d" stroke-width="0.08" />
<polygon points="82.2299240582,96.4915028125 68.3541964869,101 73.6542528005,108.294901688" fill="#d8e7ff" stroke="#224c8d" stroke-width="0.08" />
<polygon points="59.7785252292,112.803398875 68.3541964869,101 73.6542528005,108.294901688" fill="#d8e7ff" stroke="#224c8d" stroke-width="0.08" />
<polygon points="68.3541964869,101 59.7785252292,112.803398875 59.7785252292,89.196601125" fill="#d8e7ff" stroke="#224c8d" stroke-width="0.08" />
<polygon points="14.8757275713,112.803398875 23.451398829,101 23.451398829,124.60679775" fill="#d8e7ff" stroke="#224c8d" stroke-width="0.08" />
<polygon points="14.8757275713,127.39320225 14.8757275713,112.803398875 1,131.901699437" fill="#d8e7ff" stroke="#224c8d" stroke-width="0.08" />
<polygon points="14.8757275713,112.803398875 14.8757275713,127.39320225 23.451398829,124.60679775" fill="#d8e7ff" stroke="#224c8d" stroke-width="0.08" />
<polygon points="45.902797658,117.311896062 59.7785252292,112.803398875 37.3271264003,105.508497187" fill="#d8e7ff" stroke="#224c8d" stroke-width="0.08" />
<polygon points="32.0270700867,112.803398875 45.902797658,117.311896062 23.451398829,124.60679775" fill="#d8e7ff" stroke="#224c8d" stroke-width="0.08" />
<polygon points="45.902797658,117.311896062 32.0270700867,112.803398875 37.3271264003,105.508497187" fill="#d8e7ff" stroke="#224c8d" stroke-width="0.08" />
<polygon points="23.451398829,101 32.0270700867,112.803398875 37.3271264003,105.508497187" fill="#d8e7ff" stroke="#224c8d" stroke-width="0.08" />
<polygon points="32.0270700867,112.803398875 23.451398829,101 23.451398829,124.60679775" fill="#d8e7ff" stroke="#224c8d" stroke-width="0.08" />
<polygon points="23.451398829,101 37.3271264003,96.4915028125 37.3271264003,105.508497187" fill="#d8e7ff" stroke="#224c8d" stroke-width="0.08" />
<polygon points="37.3271264003,96.4915028125 23.451398829,101 37.3271264003,81.9016994375" fill="#d8e7ff" stroke="#224c8d" stroke-width="0.08" />
<polygon points="51.2028539716,101 59.7785252292,112.803398875 37.3271264003,105.508497187" fill="#d8e7ff" stroke="#224c8d" stroke-width="0.08" />
<polygon points="37.3271264003,96.4915028125 51.2028539716,101 37.3271264003,81.9016994375" fill="#d8e7ff" stroke="#224c8d" stroke-width="0.08" />
<polygon points="51.2028539716,101 37.3271264003,96.4915028125 37.3271264003,105.508497187" fill="#d8e7ff" stroke="#224c8d" stroke-width="0.08" />
<polygon points="37.3271264003,143.705098312 45.902797658,155.508497187 37.3271264003,158.294901688" fill="#d8e7ff" stroke="#224c8d" stroke-width="0.08" />
<polygon points="45.902797658,155.508497187 37.3271264003,143.705098312 59.7785252292,151" fill="#d8e7ff" stroke="#224c8d" stroke-width="0.08" />
<polygon points="45.902797658,170.098300563 37.3271264003,181.901699437 37.3271264003,158.294901688" fill="#d8e7ff" stroke="#224c8d" stroke-width="0.08" />
<polygon points="45.902797658,155.508497187 45.902797658,170.098300563 59.7785252292,151" fill="#d8e7ff" stroke="#224c8d" stroke-width="0.08" />
<polygon points="45.902797658,170.098300563 45.902797658,155.508497187 37.3271264003,158.294901688" fill="#d8e7ff" stroke="#224c8d" stroke-width="0.08" />
<polygon points="23.451398829,139.196601125 37.3271264003,143.705098312 14.8757275713,151" fill="#d8e7ff" stroke="#224c8d" stroke-width="0.08" />
<polygon points="9.57567125769,143.705098312 23.451398829,139.196601125 1,131.901699437" fill="#d8e7ff" stroke="#224c8d" stroke-width="0.08" />
<polygon points="23.451398829,139.196601125 9.57567125769,143.705098312 14.8757275713,151" fill="#d8e7ff" stroke="#224c8d" stroke-width="0.08" />
<polygon points="28.7514551426,170.098300563 37.3271264003,181.901699437 37.3271264003,158.294901688" fill="#d8e7ff" stroke="#224c8d" stroke-width="0.08" />
<polygon points="28.7514551426,155.508497187 28.7514551426,170.098300563 14.8757275713,151" fill="#d8e7ff" stroke="#224c8d" stroke-width="0.08" />
<polygon points="28.7514551426,170.098300563 28.7514551426,155.508497187 37.3271264003,158.294901688" fill="#d8e7ff" stroke="#224c8d" stroke-width="0.08" />
<polygon points="37.3271264003,143.705098312 28.7514551426,155.508497187 37.3271264003,158.294901688" fill="#d8e7ff" stroke="#224c8d" stroke-width="0.08" />
<polygon points="28.7514551426,155.508497187 37.3271264003,143.705098312 14.8757275713,151" fill="#d8e7ff" stroke="#224c8d" stroke-width="0.08" />
<polygon points="59.7785252292,127.39320225 59.7785252292,112.803398875 73.6542528005,131.901699437" fill="#d8e7ff" stroke="#224c8d" stroke-width="0.08" />
<polygon points="68.3541964869,139.196601125 59.7785252292,127.39320225 59.7785252292,151" fill="#d8e7ff" stroke="#224c8d" stroke-width="0.08" />
<polygon points="59.7785252292,127.39320225 68.3541964869,139.196601125 73.6542528005,131.901699437" fill="#d8e7ff" stroke="#224c8d" stroke-width="0.08" />
<polygon points="87.5299803718,112.803398875 96.1056516295,101 73.6542528005,108.294901688" fill="#d8e7ff" stroke="#224c8d" stroke-width="0.08" />
<polygon points="73.6542528005,117.311896062 87.5299803718,112.803398875 73.6542528005,131.901699437" fill="#d8e7ff" stroke="#224c8d" stroke-width="0.08" />
<polygon points="87.5299803718,112.803398875 73.6542528005,117.311896062 73.6542528005,108.294901688" fill="#d8e7ff" stroke="#224c8d" stroke-width="0.08" />
<polygon points="59.7785252292,112.803398875 73.6542528005,117.311896062 73.6542528005,108.294901688" fill="#d8e7ff" stroke="#224c8d" stroke-width="0.08" />
<polygon points="73.6542528005,117.311896062 59.7785252292,112.803398875 73.6542528005,131.901699437" fill="#d8e7ff" stroke="#224c8d" stroke-width="0.08" />
<polygon points="23.451398829,139.196601125 37.3271264003,143.705098312 23.451398829,124.60679775" fill="#d8e7ff" stroke="#224c8d" stroke-width="0.08" />
<polygon points="14.8757275713,127.39320225 23.451398829,139.196601125 1,131.901699437" fill="#d8e7ff" stroke="#224c8d" stroke-width="0.08" />
<polygon points="23.451398829,139.196601125 14.8757275713,127.39320225 23.451398829,124.60679775" fill="#d8e7ff" stroke="#224c8d" stroke-width="0.08" />
<polygon points="45.902797658,117.311896062 59.7785252292,112.803398875 45.902797658,131.901699437" fill="#d8e7ff" stroke="#224c8d" stroke-width="0.08" />
<polygon points="37.3271264003,129.115294937 45.902797658,117.311896062 23.451398829,124.60679775" fill="#d8e7ff" stroke="#224c8d" stroke-width="0.08" />
<polygon points="45.902797658,117.311896062 37.3271264003,129.115294937 45.902797658,131.901699437" fill="#d8e7ff" stroke="#224c8d" stroke-width="0.08" />
<polygon points="37.3271264003,143.705098312 37.3271264003,129.115294937 45.902797658,131.901699437" fill="#d8e7ff" stroke="#224c8d" stroke-width="0.08" />
<polygon points="37.3271264003,129.115294937 37.3271264003,143.705098312 23.451398829,124.60679775" fill="#d8e7ff" stroke="#224c8d" stroke-width="0.08" />
<polygon points="37.3271264003,143.705098312 51.2028539716,139.196601125 45.902797658,131.901699437" fill="#d8e7ff" stroke="#224c8d" stroke-width="0.08" />
<polygon points="51.2028539716,139.196601125 37.3271264003,143.705098312 59.7785252292,151" fill="#d8e7ff" stroke="#224c8d" stroke-width="0.08" />
<polygon points="59.7785252292,127.39320225 59.7785252292,112.803398875 45.902797658,131.901699437" fill="#d8e7ff" stroke="#224c8d" stroke-width="0.08" />
<polygon points="51.2028539716,139.196601125 59.7785252292,127.39320225 59.7785252292,151" fill="#d8e7ff" stroke="#224c8d" stroke-width="0.08" />
<polygon points="59.7785252292,127.39320225 51.2028539716,139.196601125 45.902797658,131.901699437" fill="#d8e7ff" stroke="#224c8d" stroke-width="0.08" />
<polygon points="73.6542528005,170.098300563 59.7785252292,165.589803375 59.7785252292,174.60679775" fill="#d8e7ff" stroke="#224c8d" stroke-width="0.08" />
<polygon points="59.7785252292,165.589803375 73.6542528005,170.098300563 59.7785252292,151" fill="#d8e7ff" stroke="#224c8d" stroke-width="0.08" />
<polygon points="45.902797658,170.098300563 37.3271264003,181.901699437 59.7785252292,174.60679775" fill="#d8e7ff" stroke="#224c8d" stroke-width="0.08" />
<polygon points="59.7785252292,165.589803375 45.902797658,170.098300563 59.7785252292,151" fill="#d8e7ff" stroke="#224c8d" stroke-width="0.08" />
<polygon points="45.902797658,170.098300563 59.7785252292,165.589803375 59.7785252292,174.60679775" fill="#d8e7ff" stroke="#224c8d" stroke-width="0.08" />
<polygon points="82.2299240582,181.901699437 73.6542528005,170.098300563 73.6542528005,193.705098312" fill="#d8e7ff" stroke="#224c8d" stroke-width="0.08" />
<polygon points="82.2299240582,196.491502813 82.2299240582,181.901699437 96.1056516295,201" fill="#d8e7ff" stroke="#224c8d" stroke-width="0.08" />
<polygon points="82.2299240582,181.901699437 82.2299240582,196.491502813 73.6542528005,193.705098312" fill="#d8e7ff" stroke="#224c8d" stroke-width="0.08" />
<polygon points="51.2028539716,186.410196625 37.3271264003,181.901699437 59.7785252292,174.60679775" fill="#d8e7ff" stroke="#224c8d" stroke-width="0.08" />
<polygon points="65.0785815428,181.901699437 51.2028539716,186.410196625 73.6542528005,193.705098312" fill="#d8e7ff" stroke="#224c8d" stroke-width="0.08" />
<polygon points="51.2028539716,186.410196625 65.0785815428,181.901699437 59.7785252292,174.60679775" fill="#d8e7ff" stroke="#224c8d" stroke-width="0.08" />
<polygon points="73.6542528005,170.098300563 65.0785815428,181.901699437 59.7785252292,174.60679775" fill="#d8e7ff" stroke="#224c8d" stroke-width="0.08" />
<polygon points="65.0785815428,181.901699437 73.6542528005,170.098300563 73.6542528005,193.705098312" fill="#d8e7ff" stroke="#224c8d" stroke-width="0.08" />
<polygon points="82.2299240582,143.705098312 96.1056516295,139.196601125 73.6542528005,131.901699437" fill="#d8e7ff" stroke="#224c8d" stroke-width="0.08" />
<polygon points="68.3541964869,139.196601125 82.2299240582,143.705098312 59.7785252292,151" fill="#d8e7ff" stroke="#224c8d" stroke-width="0.08" />
<polygon points="82.2299240582,143.705098312 68.3541964869,139.196601125 73.6542528005,131.901699437" fill="#d8e7ff" stroke="#224c8d" stroke-width="0.08" />
<polygon points="87.5299803718,112.803398875 96.1056516295,101 96.1056516295,124.60679775" fill="#d8e7ff" stroke="#224c8d" stroke-width="0.08" />
<polygon points="87.5299803718,127.39320225 87.5299803718,112.803398875 73.6542528005,131.901699437" fill="#d8e7ff" stroke="#224c8d" stroke-width="0.08" />
<polygon points="87.5299803718,112.803398875 87.5299803718,127.39320225 96.1056516295,124.60679775" fill="#d8e7ff" stroke="#224c8d" stroke-width="0.08" />
<polygon points="96.1056516295,139.196601125 87.5299803718,127.39320225 96.1056516295,124.60679775" fill="#d8e7ff" stroke="#224c8d" stroke-width="0.08" />
<polygon points="87.5299803718,127.39320225 96.1056516295,139.196601125 73.6542528005,131.901699437" fill="#d8e7ff" stroke="#224c8d" stroke-width="0.08" />
<polygon points="82.2299240582,181.901699437 73.6542528005,170.098300563 96.1056516295,177.39320225" fill="#d8e7ff" stroke="#224c8d" stroke-width="0.08" />
<polygon points="96.1056516295,186.410196625 82.2299240582,181.901699437 96.1056516295,201" fill="#d8e7ff" stroke="#224c8d" stroke-width="0.08" />
<polygon points="82.2299240582,181.901699437 96.1056516295,186.410196625 96.1056516295,177.39320225" fill="#d8e7ff" stroke="#224c8d" stroke-width="0.08" />
<polygon points="96.1056516295,153.7864045 96.1056516295,139.196601125 82.2299240582,158.294901688" fill="#d8e7ff" stroke="#224c8d" stroke-width="0.08" />
<polygon points="87.5299803718,165.589803375 96.1056516295,153.7864045 96.1056516295,177.39320225" fill="#d8e7ff" stroke="#224c8d" stroke-width="0.08" />
<polygon points="96.1056516295,153.7864045 87.5299803718,165.589803375 82.2299240582,158.294901688" fill="#d8e7ff" stroke="#224c8d" stroke-width="0.08" />
<polygon points="73.6542528005,170.098300563 87.5299803718,165.589803375 82.2299240582,158.294901688" fill="#d8e7ff" stroke="#224c8d" stroke-width="0.08" />
<polygon points="87.5299803718,165.589803375 73.6542528005,170.098300563 96.1056516295,177.39320225" fill="#d8e7ff" stroke="#224c8d" stroke-width="0.08" />
<polygon points="73.6542528005,170.098300563 73.6542528005,155.508497187 82.2299240582,158.294901688" fill="#d8e7ff" stroke="#224c8d" stroke-width="0.08" />
<polygon points="73.6542528005,155.508497187 73.6542528005,170.098300563 59.7785252292,151" fill="#d8e7ff" stroke="#224c8d" stroke-width="0.08" />
<polygon points="82.2299240582,143.705098312 96.1056516295,139.196601125 82.2299240582,158.294901688" fill="#d8e7ff" stroke="#224c8d" stroke-width="0.08" />
<polygon points="73.6542528005,155.508497187 82.2299240582,143.705098312 59.7785252292,151" fill="#d8e7ff" stroke="#224c8d" stroke-width="0.08" />
<polygon points="82.2299240582,143.705098312 73.6542528005,155.508497187 82.2299240582,158.294901688" fill="#d8e7ff" stroke="#224c8d" stroke-width="0.08" />
<polygon points="118.557050458,170.098300563 132.43277803,165.589803375 132.43277803,174.60679775" fill="#d8e7ff" stroke="#224c8d" stroke-width="0.08" />
<polygon points="132.43277803,165.589803375 118.557050458,170.098300563 132.43277803,151" fill="#d8e7ff" stroke="#224c8d" stroke-width="0.08" />
<polygon points="146.308505601,170.098300563 154.884176859,181.901699437 132.43277803,174.60679775" fill="#d8e7ff" stroke="#224c8d" stroke-width="0.08" />
<polygon points="132.43277803,165.589803375 146.308505601,170.098300563 132.43277803,151" fill="#d8e7ff" stroke="#224c8d" stroke-width="0.08" />
<polygon points="146.308505601,170.098300563 132.43277803,165.589803375 132.43277803,174.60679775" fill="#d8e7ff" stroke="#224c8d" stroke-width="0.08" />
<polygon points="109.981379201,181.901699437 118.557050458,170.098300563 118.557050458,193.705098312" fill="#d8e7ff" stroke="#224c8d" stroke-width="0.08" />
<polygon points="109.981379201,196.491502813 109.981379201,181.901699437 96.1056516295,201" fill="#d8e7ff" stroke="#224c8d" stroke-width="0.08" />
<polygon points="109.981379201,181.901699437 109.981379201,196.491502813 118.557050458,193.705098312" fill="#d8e7ff" stroke="#224c8d" stroke-width="0.08" />
<polygon points="141.008449287,186.410196625 154.884176859,181.901699437 132.43277803,174.60679775" fill="#d8e7ff" stroke="#224c8d" stroke-width="0.08" />
<polygon points="127.132721716,181.901699437 141.008449287,186.410196625 118.557050458,193.705098312" fill="#d8e7ff" stroke="#224c8d" stroke-width="0.08" />
<polygon points="141.008449287,186.410196625 127.132721716,181.901699437 132.43277803,174.60679775" fill="#d8e7ff" stroke="#224c8d" stroke-width="0.08" />
<polygon points="118.557050458,170.098300563 127.132721716,181.901699437 132.43277803,174.60679775" fill="#d8e7ff" stroke="#224c8d" stroke-width="0.08" />
<polygon points="127.132721716,181.901699437 118.557050458,170.098300563 118.557050458,193.705098312" fill="#d8e7ff" stroke="#224c8d" stroke-width="0.08" />
<polygon points="109.981379201,143.705098312 96.1056516295,139.196601125 118.557050458,131.901699437" fill="#d8e7ff" stroke="#224c8d" stroke-width="0.08" />
<polygon points="123.857106772,139.196601125 109.981379201,143.705098312 132.43277803,151" fill="#d8e7ff" stroke="#224c8d" stroke-width="0.08" />
<polygon points="109.981379201,143.705098312 123.857106772,139.196601125 118.557050458,131.901699437" fill="#d8e7ff" stroke="#224c8d" stroke-width="0.08" />
<polygon points="104.681322887,112.803398875 96.1056516295,101 96.1056516295,124.60679775" fill="#d8e7ff" stroke="#224c8d" stroke-width="0.08" />
<polygon points="104.681322887,127.39320225 104.681322887,112.803398875 118.557050458,131.901699437" fill="#d8e7ff" stroke="#224c8d" stroke-width="0.08" />
<polygon points="104.681322887,112.803398875 104.681322887,127.39320225 96.1056516295,124.60679775" fill="#d8e7ff" stroke="#224c8d" stroke-width="0.08" />
<polygon points="96.1056516295,139.196601125 104.681322887,127.39320225 96.1056516295,124.60679775" fill="#d8e7ff" stroke="#224c8d" stroke-width="0.08" />
<polygon points="104.681322887,127.39320225 96.1056516295,139.196601125 118.557050458,131.901699437" fill="#d8e7ff" stroke="#224c8d" stroke-width="0.08" />
<polygon points="109.981379201,181.901699437 118.557050458,170.098300563 96.1056516295,177.39320225" fill="#d8e7ff" stroke="#224c8d" stroke-width="0.08" />
<polygon points="96.1056516295,186.410196625 109.981379201,181.901699437 96.1056516295,201" fill="#d8e7ff" stroke="#224c8d" stroke-width="0.08" />
<polygon points="109.981379201,181.901699437 96.1056516295,186.410196625 96.1056516295,177.39320225" fill="#d8e7ff" stroke="#224c8d" stroke-width="0.08" />
<polygon points="96.1056516295,153.7864045 96.1056516295,139.196601125 109.981379201,158.294901688" fill="#d8e7ff" stroke="#224c8d" stroke-width="0.08" />
<polygon points="104.681322887,165.589803375 96.1056516295,153.7864045 96.1056516295,177.39320225" fill="#d8e7ff" stroke="#224c8d" stroke-width="0.08" />
<polygon points="96.1056516295,153.7864045 104.681322887,165.589803375 109.981379201,158.294901688" fill="#d8e7ff" stroke="#224c8d" stroke-width="0.08" />
<polygon points="118.557050458,170.098300563 104.681322887,165.589803375 109.981379201,158.294901688" fill="#d8e7ff" stroke="#224c8d" stroke-width="0.08" />
<polygon points="104.681322887,165.589803375 118.557050458,170.098300563 96.1056516295,177.39320225" fill="#d8e7ff" stroke="#224c8d" stroke-width="0.08" />
<polygon points="118.557050458,170.098300563 118.557050458,155.508497187 109.981379201,158.294901688" fill="#d8e7ff" stroke="#224c8d" stroke-width="0.08" />
<polygon points="118.557050458,155.508497187 118.557050458,170.098300563 132.43277803,151" fill="#d8e7ff" stroke="#224c8d" stroke-width="0.08" />
<polygon points="109.981379201,143.705098312 96.1056516295,139.196601125 109.981379201,158.294901688" fill="#d8e7ff" stroke="#224c8d" stroke-width="0.08" />
<polygon points="118.557050458,155.508497187 109.981379201,143.705098312 132.43277803,151" fill="#d8e7ff" stroke="#224c8d" stroke-width="0.08" />
<polygon points="109.981379201,143.705098312 118.557050458,155.508497187 109.981379201,158.294901688" fill="#d8e7ff" stroke="#224c8d" stroke-width="0.08" />
<polygon points="154.884176859,143.705098312 146.308505601,155.508497187 154.884176859,158.294901688" fill="#d8e7ff" stroke="#224c8d" stroke-width="0.08" />
<polygon points="146.308505601,155.508497187 154.884176859,143.705098312 132.43277803,151" fill="#d8e7ff" stroke="#224c8d" stroke-width="0.08" />
<polygon points="146.308505601,170.098300563 154.884176859,181.901699437 154.884176859,158.294901688" fill="#d8e7ff" stroke="#224c8d" stroke-width="0.08" />
<polygon points="146.308505601,155.508497187 146.308505601,170.098300563 132.43277803,151" fill="#d8e7ff" stroke="#224c8d" stroke-width="0.08" />
<polygon points="146.308505601,170.098300563 146.308505601,155.508497187 154.884176859,158.294901688" fill="#d8e7ff" stroke="#224c8d" stroke-width="0.08" />
<polygon points="168.75990443,139.196601125 154.884176859,143.705098312 177.335575688,151" fill="#d8e7ff" stroke="#224c8d" stroke-width="0.08" />
<polygon points="182.635632001,143.705098312 168.75990443,139.196601125 191.211303259,131.901699437" fill="#d8e7ff" stroke="#224c8d" stroke-width="0.08" />
<polygon points="168.75990443,139.196601125 182.635632001,143.705098312 177.335575688,151" fill="#d8e7ff" stroke="#224c8d" stroke-width="0.08" />
<polygon points="163.459848116,170.098300563 154.884176859,181.901699437 154.884176859,158.294901688" fill="#d8e7ff" stroke="#224c8d" stroke-width="0.08" />
<polygon points="163.459848116,155.508497187 163.459848116,170.098300563 177.335575688,151" fill="#d8e7ff" stroke="#224c8d" stroke-width="0.08" />
<polygon points="163.459848116,170.098300563 163.459848116,155.508497187 154.884176859,158.294901688" fill="#d8e7ff" stroke="#224c8d" stroke-width="0.08" />
<polygon points="154.884176859,143.705098312 163.459848116,155.508497187 154.884176859,158.294901688" fill="#d8e7ff" stroke="#224c8d" stroke-width="0.08" />
<polygon points="163.459848116,155.508497187 154.884176859,143.705098312 177.335575688,151" fill="#d8e7ff" stroke="#224c8d" stroke-width="0.08" />
<polygon points="132.43277803,127.39320225 132.43277803,112.803398875 118.557050458,131.901699437" fill="#d8e7ff" stroke="#224c8d" stroke-width="0.08" />
<polygon points="123.857106772,139.196601125 132.43277803,127.39320225 132.43277803,151" fill="#d8e7ff" stroke="#224c8d" stroke-width="0.08" />
<polygon points="132.43277803,127.39320225 123.857106772,139.196601125 118.557050458,131.901699437" fill="#d8e7ff" stroke="#224c8d" stroke-width="0.08" />
<polygon points="104.681322887,112.803398875 96.1056516295,101 118.557050458,108.294901688" fill="#d8e7ff" stroke="#224c8d" stroke-width="0.08" />
<polygon points="118.557050458,117.311896062 104.681322887,112.803398875 118.557050458,131.901699437" fill="#d8e7ff" stroke="#224c8d" stroke-width="0.08" />
<polygon points="104.681322887,112.803398875 118.557050458,117.311896062 118.557050458,108.294901688" fill="#d8e7ff" stroke="#224c8d" stroke-width="0.08" />
<polygon points="132.43277803,112.803398875 118.557050458,117.311896062 118.557050458,108.294901688" fill="#d8e7ff" stroke="#224c8d" stroke-width="0.08" />
<polygon points="118.557050458,117.311896062 132.43277803,112.803398875 118.557050458,131.901699437" fill="#d8e7ff" stroke="#224c8d" stroke-width="0.08" />
<polygon points="168.75990443,139.196601125 154.884176859,143.705098312 168.75990443,124.60679775" fill="#d8e7ff" stroke="#224c8d" stroke-width="0.08" />
<polygon points="177.335575688,127.39320225 168.75990443,139.196601125 191.211303259,131.901699437" fill="#d8e7ff" stroke="#224c8d" stroke-width="0.08" />
<polygon points="168.75990443,139.196601125 177.335575688,127.39320225 168.75990443,124.60679775" fill="#d8e7ff" stroke="#224c8d" stroke-width="0.08" />
<polygon points="146.308505601,117.311896062 132.43277803,112.803398875 146.308505601,131.901699437" fill="#d8e7ff" stroke="#224c8d" stroke-width="0.08" />
<polygon points="154.884176859,129.115294937 146.308505601,117.311896062 168.75990443,124.60679775" fill="#d8e7ff" stroke="#224c8d" stroke-width="0.08" />
<polygon points="146.308505601,117.311896062 154.884176859,129.115294937 146.308505601,131.901699437" fill="#d8e7ff" stroke="#224c8d" stroke-width="0.08" />
<polygon points="154.884176859,143.705098312 154.884176859,129.115294937 146.308505601,131.901699437" fill="#d8e7ff" stroke="#224c8d" stroke-width="0.08" />
<polygon points="154.884176859,129.115294937 154.884176859,143.705098312 168.75990443,124.60679775" fill="#d8e7ff" stroke="#224c8d" stroke-width="0.08" />
<polygon points="154.884176859,143.705098312 141.008449287,139.196601125 146.308505601,131.901699437" fill="#d8e7ff" stroke="#224c8d" stroke-width="0.08" />
<polygon points="141.008449287,139.196601125 154.884176859,143.705098312 132.43277803,151" fill="#d8e7ff" stroke="#224c8d" stroke-width="0.08" />
<polygon points="132.43277803,127.39320225 132.43277803,112.803398875 146.308505601,131.901699437" fill="#d8e7ff" stroke="#224c8d" stroke-width="0.08" />
<polygon points="141.008449287,139.196601125 132.43277803,127.39320225 132.43277803,151" fill="#d8e7ff" stroke="#224c8d" stroke-width="0.08" />
<polygon points="132.43277803,127.39320225 141.008449287,139.196601125 146.308505601,131.901699437" fill="#d8e7ff" stroke="#224c8d" stroke-width="0.08" />
</svg>
